<svg xmlns="http://www.w3.org/2000/svg" enable-background="new 0 0 500 500" viewBox="0 0 500 500"><path fill="#9fbff4" d="M475.23,291.02c0,44.81-15.22,86.06-40.77,118.87c-2.45,3.14-4.98,6.2-7.6,9.18H136.29
			c-2.63-2.98-5.16-6.04-7.6-9.18c-25.55-32.81-40.77-74.06-40.77-118.87c0-106.95,86.71-193.66,193.66-193.66
			C388.53,97.36,475.23,184.07,475.23,291.02z"/><path fill="#d64e12" d="M88.78,345.33l-3.18-0.42l2.93,1.77c-1.71,8.27-6.67,13.92-7.05,14.34c-0.02,0.02-0.02,0.02-0.02,0.02
					c-1.18,1.3-5.68-1.71-6.52-2.48c-3.3-2.95-4.82-7.28-6.25-11.33c-1.75-4.95-3.41-9.94-5.51-14.76
					c-1.68-3.85-3.54-7.62-5.37-11.39l1.58-4.69l-3.96-0.4c-0.38-0.84-0.74-1.68-1.1-2.51c-1.62-3.77-3.16-7.56-4.59-11.41
					c0.71,0.25,19.2,7.2,30.4,18.78l-1.47,2.36l4.27,0.84c1.41,1.77,2.61,3.66,3.54,5.62C89.18,335.33,89.52,340.7,88.78,345.33z"/><path fill="#d64e12" d="M127.52,334.66c-0.38,0.46-0.72,0.93-1.09,1.41c-3.45,4.86-7.24,9.45-11.31,13.75l-2.02-1.33
					c0,0,0.69,1.35,1.1,2.27c-3.56,3.71-7.35,7.24-11.33,10.53c-1.09,0.9-2.34,1.83-3.71,2.42l-1.66-1.77c0,0,0.04,1.28,0.04,2.29
					c-0.61,0.11-1.22,0.15-1.85,0.06c-0.84-0.11-3.85-0.7-4.27-1.52l-0.02-0.02c0,0-4.02-9.05,3.68-17.13
					c0.8-0.84,1.7-1.56,2.65-2.21l1.3,1.68l2.17-3.66c2.06-0.97,4.23-1.73,6.29-2.4c4.63-1.52,9.43-2.61,14.23-3.45
					C123.64,335.23,125.58,334.95,127.52,334.66z"/><path fill="#d64e12" d="M71.33,368.93l-0.02,0.02c-5.24,2.25-11.37,0.25-16.92-3.07c0.72-1.5,2.19-4.48,2.32-4.67
					c0.13-0.19-2.71,2.08-4.34,3.39c-7.94-5.28-14.25-12.63-14.25-12.63s20.97-1.33,28.76,2.7c0.76,0.4,1.43,0.86,2,1.35l-0.69,1.6
					l1.75-0.46C73.65,361.88,71.33,368.93,71.33,368.93z"/><path fill="none" stroke="#212e57" stroke-miterlimit="10" stroke-width=".952" d="M80.93,384.27c0,0,7.25-45.13-19.19-70.57"/><path fill="none" stroke="#212e57" stroke-miterlimit="10" stroke-width=".952" d="M81.93,390.7c0,0,2.57-35.41,32.24-47.4"/><path fill="none" stroke="#212e57" stroke-miterlimit="10" stroke-width=".952" d="M80.51,381.83c0,0-11.81-22.4-29.92-26.53"/><path fill="#212e57" d="M100.21,380.29l-8.9,32.12H72.71l-8.84-31.92c-0.02-0.05-0.03-0.08-0.03-0.11l-0.03-0.1H100.21z"/><path fill="#8391fc" d="M75.69,412.42H91.3l8.84-31.92C99.29,383.15,90.08,410.63,75.69,412.42z" opacity=".5"/><path fill="#f2c7bd" d="M279.68,259.97c-26.13,1.04-72.66,134.97-54.48,137.55C249.7,414.5,321.95,266.73,279.68,259.97z"/><path fill="#d64e12" d="M281.76,254.65l-0.23,32.9l-0.49,64.92c0,0-0.52,0.83-1.43,2.34c-0.23,0.36-0.47,0.78-0.75,1.22
					c-0.83,1.33-1.87,3.01-3.07,4.99l-14.71-9.9l-27.99-18.84c7.17-18.48,14.58-36.33,19.83-46.08
					C266.84,260.26,281.76,254.65,281.76,254.65z"/><path fill="#9fbff4" d="M281.52,287.55l-0.49,64.92c0,0-0.52,0.83-1.43,2.34c-0.23,0.36-0.47,0.75-0.75,1.22
					c-0.83,1.33-1.87,3.01-3.07,4.99l-14.71-9.9c0.52-18.3,0.23-26.43,0-40.65c-0.26-15.05,4.65-34.54,4.65-34.54
					S273.67,281.76,281.52,287.55z" opacity=".5"/><polygon fill="#f2c7bd" points="347.27 259.07 325.86 275.12 310.6 261.51 310.6 240.98 341.12 217.04 341.66 220.69 343.25 231.61"/><path fill="#f2c7bd" d="M343.25,231.61c-18.35,15.08-30.66,14.23-32.65,14.59c-0.11,0.01-0.16,0.03-0.16,0.03l0.16-0.15
						l28.45-25.23c0,0,1.13-0.15,2.61-0.16L343.25,231.61z"/><path fill="#f2c7bd" d="M343.75,221.34c0,0-5.66,12.62-18.82,19.03c-6.18,3.01-13.18,7.09-20.31,5.69
							c-6.3-1.24-9.63-7.51-12.32-12.7c-2.62-5.06-3.83-10.77-3.84-16.46c-0.01-6.14,0.32-12.08-1.01-18.12
							c-1.05-4.77-2.57-10.73,0.28-15.18c3.7-5.76,32.52-12.94,32.52-12.94l16.97,9.35l12.84,8.48L343.75,221.34z"/><path fill="#212e57" d="M291.48,206.18c0.02,2.01,1.07,3.63,2.36,3.62c1.29-0.01,2.32-1.65,2.3-3.65
										c-0.01-1-0.28-1.91-0.7-2.57c-0.43-0.65-1.01-1.06-1.66-1.05C292.5,202.53,291.47,204.17,291.48,206.18z"/><path fill="#212e57" d="M314.17,207.53c0.02,2.01,1.19,3.63,2.63,3.61s2.58-1.65,2.57-3.66c-0.01-1-0.31-1.91-0.78-2.56
										c-0.48-0.65-1.13-1.06-1.84-1.05C315.31,203.88,314.16,205.52,314.17,207.53z"/><line x1="311.44" x2="319.94" y1="196.64" y2="197.58" fill="none" stroke="#212e57" stroke-linecap="round" stroke-linejoin="round" stroke-miterlimit="10" stroke-width="1.304"/><line x1="289.65" x2="296.44" y1="196.2" y2="196.31" fill="none" stroke="#212e57" stroke-linecap="round" stroke-linejoin="round" stroke-miterlimit="10" stroke-width="1.304"/><path fill="none" stroke="#212e57" stroke-linecap="round" stroke-linejoin="round" stroke-miterlimit="10" stroke-width="1.304" d="M304.37,208.17c0,0-2.65,4.72-3.61,6c-0.96,1.27-3.9,5.42,2.66,5.63"/><path fill="#212e57" d="M312.55,226.62c0,0-0.7,0.72-1.89,1.56c-1.75,1.26-4.55,2.83-7.81,2.96c-2.33,0.1-4.6-2.23-5.74-3.6
								c-0.47-0.57-0.74-0.98-0.74-0.98s1.5,0.1,3.64,0.21c2.32,0.1,5.4,0.2,8.09,0.16C309.84,226.91,311.43,226.81,312.55,226.62z"/><path fill="#fff" d="M312.55,226.62c0,0-0.7,0.72-1.89,1.56c-6.73,1.29-12-0.13-13.55-0.64c-0.47-0.57-0.74-0.98-0.74-0.98
								s1.5,0.1,3.64,0.21c2.32,0.1,5.4,0.2,8.09,0.16C309.84,226.91,311.43,226.81,312.55,226.62z"/><path fill="#262a41" d="M304.92,184.47c0,0,0.87,4.68,5.76,6.74c0,0-9.25,1.09-14.79-3.05c0,0,2.61,4.02,4.79,4.68
							c0,0-11.53,0.54-15.23-3.7l1.31,7.29c0,0-6.74-6.74-6.64-14.9c0.08-5.79,2.68-11.1,4.45-16.49c1.17-3.54,2.87-7.54,6.34-9.39
							c9.24-4.92,20.47-4.09,30.29-1.58c7.82,2,15.88,4.74,22.17,9.97c16.69,13.89,10.24,44.58-0.96,59.95c0,0-1.38-14.07-1.6-18.42
							c-0.22-4.35-4.13-5.44-4.02-3.37s-0.23,12.23-2.4,12.12c-2.18-0.11-3.02-17.87-8.24-21.57
							C320.92,189.04,309.16,187.95,304.92,184.47z"/><path fill="#f2c7bd" d="M336.65,201.16c0,0,7.31-7.44,8.8-0.12c1.49,7.31-6.82,16.49-6.82,16.49L336.65,201.16z"/><path fill="#d64e12" d="M412.26,405.25H269.61c-3.61-44.48-8.41-113.76-4.49-128.13c4.5-16.53,13.34-23.25,26.85-26.15
					c4.08-0.86,13.71-1.89,18.65-2.22c4.16,22.69,35.4,0.45,35.4,0.45s7.48,0.74,12.89,1.09c12.65,0.78,34.42,4.9,38.79,23.66
					c2.11,9.07,4.61,32.75,7.27,59.53c1.48,15.13,3.02,31.25,4.56,46.31C410.45,388.81,411.35,397.44,412.26,405.25z"/><path fill="#9fbff4" d="M370.92,301.47c0,0,19.55,54.74,21.75,61.34s0.98,11.99-8.81,16.14c-9.78,4.16,15.41,11.74,15.9,10.27
					c0.49-1.47,33.02-29.84,31.07-31.56C428.87,355.97,370.92,301.47,370.92,301.47z" opacity=".5"/><path fill="#f2c7bd" d="M379.63,265.41c-17.42,19.5,46.46,146.07,60.96,134.81C469.84,394.42,413.88,239.74,379.63,265.41z"/><path fill="#f2c7bd" d="M436.66,330.04c0,0,21.04,52.84,11.99,64.58c-9.05,11.74-95.84,18.45-95.84,18.45l-3.72-23.83
					c0,0,60.3-14.8,60.48-15.72s-14.68-26.97-14.68-26.97L436.66,330.04z"/><path fill="#f2c7bd" d="M450.44,388.65c-0.06,4.18-2.64,7.96-6.26,10.04c-28.32,16.3-153.66,18.36-150.14,9.55
							C293.86,401.51,450.86,357.22,450.44,388.65z"/><path fill="#d64e12" d="M393.98,349.85c0,0,0,0,0-0.03c-8.91-16.24-20.12-37.76-23.08-48.34c0,0-19.57-40.23-5.02-46.86
					c1.95-0.88,6.06-2.31,8.06-1.82c14.89,3.61,30.43,14.37,40.91,29.52c6.99,10.08,16.3,28.56,24.01,47.9c0,0,0.03,0.03,0.03,0.05
					L393.98,349.85z"/><path fill="#f2c7bd" d="M260.21,418.26c0.21-0.63,10.22-20.86,21.48-22.74s26.7,3.75,28.79,3.75s6.88-0.42,6.88-0.42l3.34,13.35
					c0,0-8.87-0.1-10.12,1.36c-1.25,1.46-1.77,3.55-6.47,3.55s-9.49-4.38-15.23-4.38s-9.91,6.67-15.02,6.67
					S260.21,418.26,260.21,418.26z"/><path fill="#f2c7bd" d="M234.2,396.81c-3.37,2.47-7.94,2.69-11.78,1.05c-30.07-12.8-107.19-111.62-98.04-114.11
							C129.65,279.55,259.55,378.22,234.2,396.81z"/><path fill="#212e57" d="M107.84,375.87h150.92c5.44,0,9.51-5,8.41-10.33l-22.78-110c-0.83-3.99-4.34-6.84-8.41-6.84H85.05
						c-5.44,0-9.51,5-8.41,10.33l22.78,110C100.26,373.01,103.77,375.87,107.84,375.87z"/><path fill="#fff" d="M70.02,260.09l22.42,108.22c0.91,4.4,4.79,7.56,9.28,7.56h149.1c6.01,0,10.5-5.52,9.27-11.4l-22.41-108.22
						c-0.91-4.4-4.78-7.56-9.27-7.56H79.3C73.3,248.69,68.81,254.21,70.02,260.09z"/><path fill="#212e57" d="M173.86,375.87h19.81l-6.9-32.79C186.77,343.08,178.23,364.48,173.86,375.87z"/><polygon fill="#fff" points="184.27 404.94 139.33 404.94 143.28 339.05 188.22 339.05"/><rect width="161.01" height="7.44" x="92.88" y="402.27" fill="#fff" transform="rotate(-180 173.39 405.986)"/><ellipse cx="162.45" cy="307.68" fill="#9fbff4" rx="11.81" ry="14.6" transform="rotate(-11.519 162.404 307.608)"/><rect width="425.65" height="9.18" x="41.87" y="409.89" fill="#212e57"/><path fill="#212e57" d="M203.33,140.29v77.27c0,2.14-1.44,3.88-3.2,3.88H60.66c-1.76,0-3.2-1.73-3.2-3.88v-77.27
												c0-2.13,1.44-3.86,3.2-3.86h139.47C201.9,136.43,203.33,138.16,203.33,140.29z"/><path fill="#505ea3" d="M203.36,140.29v7.05H57.48v-7.05c0-2.13,1.44-3.86,3.21-3.86h139.46
												C201.93,136.42,203.36,138.15,203.36,140.29z"/><circle cx="63.94" cy="142.06" r="1.59" fill="#fff"/><circle cx="70.87" cy="142.06" r="1.59" fill="#fff"/><circle cx="77.79" cy="142.06" r="1.59" fill="#fff"/><rect width="29.72" height="1.51" x="65.15" y="155.39" fill="#d64e12"/><rect width="29.72" height="1.51" x="65.15" y="160.57" fill="#505ea3"/><g><path fill="#fff" d="M177.09,188.63c0,0.34-0.01,0.69-0.02,1.03l-5.19-3.52l-4.69,3.5c0.03-0.33,0.05-0.67,0.05-1.01
							c0-6.18-5.02-11.21-11.2-11.21c-3.59,0-11.95,5.31-19.22,11.21l-4.06-3.66c-0.65-0.58-1.84-1.64-3.42-2.96
							c6.23-5.2,18.47-14.44,26.69-14.44C167.64,167.57,177.09,177.01,177.09,188.63z"/><path fill="#d64e12" d="M171.87,186.14l-4.69,3.5c-0.51,5.71-5.32,10.2-11.15,10.2c-3.59,0-11.95-5.31-19.22-11.21l-4.06-3.66
							c-0.65-0.58-1.84-1.64-3.42-2.96c-6.24-5.2-18.48-14.44-26.69-14.44c-11.61,0-21.06,9.44-21.06,21.06
							c0,0.41,0.01,0.82,0.03,1.22l4.98-3.71l4.66,3.16c-0.01-0.21-0.02-0.41-0.02-0.62c0-6.18,5.02-11.21,11.2-11.21
							c3.59,0,11.95,5.31,19.22,11.21c0,0,3.24,2.82,7.86,6.41c7.96,6.17,20.01,14.6,26.52,14.6c11.26,0,20.49-8.89,21.03-20.03
							L171.87,186.14z"/><path fill="#fff" d="M121.66,188.68c0,0,3.24,2.82,7.86,6.41c-6.18,5.17-18.58,14.6-26.86,14.6
							c-11.2,0-20.39-8.79-21.03-19.84l4.98-3.71l4.66,3.16c0.33,5.89,5.22,10.58,11.18,10.58
							C106.02,199.88,114.38,194.56,121.66,188.68z"/></g><path fill="#d4e3f9" d="M436.71,234.02h-2.51c-0.44-1.95-1.2-3.8-2.2-5.47l1.85-1.85c0.65-0.65,0.65-1.71,0-2.37l-4.05-4.05
			c-0.65-0.65-1.71-0.65-2.37,0l-1.78,1.78c-1.65-1.04-3.48-1.83-5.42-2.32v-2.61c0-0.92-0.75-1.67-1.67-1.67h-5.73
			c-0.92,0-1.67,0.75-1.67,1.67v2.51c-1.96,0.44-3.8,1.2-5.48,2.19l0,0l-1.85-1.85c-0.65-0.65-1.71-0.65-2.37,0l-4.05,4.05
			c-0.65,0.65-0.65,1.71,0,2.37l1.78,1.78c-1.04,1.65-1.83,3.47-2.32,5.42h-2.61c-0.92,0-1.67,0.75-1.67,1.67v5.73
			c0,0.92,0.75,1.67,1.67,1.67h2.52c0.44,1.95,1.19,3.8,2.19,5.47l-1.85,1.85c-0.65,0.65-0.65,1.71,0,2.37l4.05,4.05
			c0.65,0.65,1.71,0.65,2.37,0l1.78-1.78c0,0,0,0,0,0c1.65,1.04,3.47,1.83,5.42,2.32c0,0,0,0,0,0v2.61c0,0.92,0.75,1.67,1.67,1.67
			h5.73c0.92,0,1.67-0.75,1.67-1.67v-2.51c0,0,0,0,0,0c1.96-0.44,3.8-1.19,5.47-2.19c0,0,0,0,0,0l1.85,1.85
			c0.65,0.65,1.71,0.65,2.37,0l4.05-4.05c0.65-0.65,0.65-1.71,0-2.37l-1.78-1.78c0,0,0,0,0,0c1.04-1.65,1.84-3.47,2.33-5.42h2.61
			c0.92,0,1.67-0.75,1.67-1.67v-5.73C438.39,234.76,437.64,234.02,436.71,234.02z M415.49,248.99c-5.88,0-10.65-4.77-10.65-10.65
			s4.77-10.65,10.65-10.65c5.89,0,10.66,4.77,10.66,10.65S421.38,248.99,415.49,248.99z"/><circle cx="450.37" cy="294.62" r="4.14" fill="#d4e3f9"/><path fill="#d4e3f9" d="M267.17,215.8h-2.51c-0.44-1.95-1.2-3.8-2.2-5.47l1.85-1.85c0.65-0.65,0.65-1.71,0-2.37l-4.05-4.05
			c-0.65-0.65-1.71-0.65-2.37,0l-1.78,1.78c-1.65-1.04-3.48-1.83-5.42-2.32v-2.61c0-0.92-0.75-1.67-1.67-1.67h-5.73
			c-0.92,0-1.67,0.75-1.67,1.67v2.51c-1.96,0.44-3.8,1.2-5.48,2.19l0,0l-1.85-1.85c-0.65-0.65-1.71-0.65-2.37,0l-4.05,4.05
			c-0.65,0.65-0.65,1.71,0,2.37l1.78,1.78c-1.04,1.65-1.83,3.47-2.32,5.42h-2.61c-0.92,0-1.67,0.75-1.67,1.67v5.73
			c0,0.92,0.75,1.67,1.67,1.67h2.52c0.44,1.95,1.19,3.8,2.19,5.47l-1.85,1.85c-0.65,0.65-0.65,1.71,0,2.37l4.05,4.05
			c0.65,0.65,1.71,0.65,2.37,0l1.78-1.78c0,0,0,0,0,0c1.65,1.04,3.47,1.83,5.42,2.32c0,0,0,0,0,0v2.61c0,0.92,0.75,1.67,1.67,1.67
			h5.73c0.92,0,1.67-0.75,1.67-1.67v-2.51c0,0,0,0,0,0c1.96-0.44,3.8-1.19,5.47-2.19c0,0,0,0,0,0l1.85,1.85
			c0.65,0.65,1.71,0.65,2.37,0l4.05-4.05c0.65-0.65,0.65-1.71,0-2.37l-1.78-1.78c0,0,0,0,0,0c1.04-1.65,1.84-3.47,2.33-5.42h2.61
			c0.92,0,1.67-0.75,1.67-1.67v-5.73C268.84,216.55,268.09,215.8,267.17,215.8z M245.95,230.78c-5.88,0-10.65-4.77-10.65-10.65
			c0-5.89,4.77-10.65,10.65-10.65c5.89,0,10.66,4.77,10.66,10.65C256.6,226.01,251.83,230.78,245.95,230.78z"/><g><path fill="#212e57" d="M470.38,150.14v54.53c0,1.51-1.01,2.73-2.26,2.73H369.7c-1.24,0-2.26-1.22-2.26-2.73v-54.53
												c0-1.5,1.02-2.72,2.26-2.72h98.42C469.36,147.41,470.38,148.64,470.38,150.14z"/><path fill="#505ea3" d="M470.4,150.13v4.98H367.45v-4.98c0-1.51,1.01-2.73,2.27-2.73h98.42
												C469.39,147.41,470.4,148.63,470.4,150.13z"/><circle cx="372.01" cy="151.39" r="1.12" fill="#fff"/><circle cx="376.9" cy="151.39" r="1.12" fill="#fff"/><circle cx="381.78" cy="151.39" r="1.12" fill="#fff"/><g><rect width="24.89" height="1.76" x="380.85" y="160.17" fill="#212e57"/><rect width="7.68" height="1.76" x="408.67" y="160.17" fill="#d64e12" opacity=".5"/><rect width="2.11" height="1.76" x="375.08" y="160.17" fill="#505ea3"/><rect width="10.52" height="1.76" x="440.07" y="160.17" fill="#505ea3"/><rect width="17.77" height="1.76" x="420.03" y="160.17" fill="#505ea3"/><polygon fill="#212e57" points="410.19 193.39 408.67 193.39 380.85 193.39 380.85 195.15 408.67 195.15 410.19 195.15 416.35 195.15 416.35 193.39"/><rect width="2.11" height="1.76" x="375.08" y="193.39" fill="#505ea3"/><rect width="5.8" height="1.76" x="440.07" y="193.39" fill="#505ea3"/><rect width="17.77" height="1.76" x="420.03" y="193.39" fill="#d64e12" opacity=".5"/><rect width="5.09" height="1.76" x="380.85" y="165.7" fill="#505ea3"/><rect width="28.68" height="1.76" x="388.17" y="165.7" fill="#da8621" opacity=".5"/><rect width="2.11" height="1.76" x="375.08" y="165.7" fill="#505ea3"/><rect width="42.72" height="1.76" x="420.03" y="165.7" fill="#505ea3"/><rect width="5.09" height="1.76" x="380.85" y="198.93" fill="#505ea3"/><rect width="5.09" height="1.76" x="422.07" y="198.93" fill="#505ea3"/><rect width="28.68" height="1.76" x="388.17" y="198.93" fill="#da8621" opacity=".5"/><rect width="2.11" height="1.76" x="375.08" y="198.93" fill="#505ea3"/><rect width="31.14" height="1.76" x="431.62" y="198.93" fill="#505ea3"/><g><rect width="15.48" height="1.76" x="380.85" y="171.24" fill="#505ea3"/><rect width="7.54" height="1.76" x="398.2" y="171.24" fill="#505ea3"/><rect width="2.11" height="1.76" x="375.08" y="171.24" fill="#505ea3"/><rect width="23.34" height="1.76" x="409.19" y="171.24" fill="#505ea3"/><rect width="27.69" height="1.76" x="435.07" y="171.24" fill="#d64e12" opacity=".5"/></g><g><rect width="41.03" height="1.76" x="380.85" y="176.78" fill="#505ea3"/><rect width="2.11" height="1.76" x="375.08" y="176.78" fill="#505ea3"/><rect width="30.29" height="1.76" x="424.03" y="176.78" fill="#505ea3"/></g><g><rect width="21.06" height="1.76" x="380.85" y="182.32" fill="#d64e12" opacity=".5"/><rect width="2.11" height="1.76" x="375.08" y="182.32" fill="#505ea3"/><rect width="40.15" height="1.76" x="414.17" y="182.32" fill="#212e57"/><rect width="5.41" height="1.76" x="457.34" y="182.32" fill="#505ea3"/><rect width="5.41" height="1.76" x="404.71" y="182.32" fill="#505ea3"/></g><g><rect width="10.59" height="1.76" x="380.85" y="187.85" fill="#505ea3"/><rect width="10.59" height="1.76" x="402.21" y="187.85" fill="#505ea3"/><rect width="2.11" height="1.76" x="375.08" y="187.85" fill="#505ea3"/><rect width="27.44" height="1.76" x="416.75" y="187.85" fill="#505ea3"/><rect width="14.95" height="1.76" x="447.8" y="187.85" fill="#da8621" opacity=".5"/><rect width="5.41" height="1.76" x="394.32" y="187.85" fill="#505ea3"/></g></g></g><g><path fill="#d64e12" d="M326.86,123.34h-55.03c-3.33,0-6.03-2.7-6.03-6.03V83.07c0-3.33,2.7-6.03,6.03-6.03h55.03
				c3.33,0,6.03,2.7,6.03,6.03v34.24C332.89,120.64,330.19,123.34,326.86,123.34z"/><path fill="#fff" d="M284.82,101.77v-3.19c1.57-0.07,2.23-0.7,2.23-1.81c0-1.45-0.49-3.77-0.49-5.55c0-2.72,1.8-4.22,4.48-4.22
					h1.69v3.28h-0.91c-1.01,0-1.41,0.44-1.41,1.34c0,1.26,0.4,3.68,0.4,5.32c0,1.66-0.77,2.88-2.51,3.21v0.05
					c1.73,0.35,2.51,1.55,2.51,3.24c0,1.64-0.4,4.03-0.4,5.3c0,0.89,0.4,1.36,1.41,1.36h0.91v3.28h-1.69c-2.67,0-4.48-1.5-4.48-4.24
					c0-1.78,0.49-4.1,0.49-5.55C287.04,102.54,286.39,101.84,284.82,101.77z"/><path fill="#fff" d="M311.65,103.58c0,1.45,0.49,3.77,0.49,5.55c0,2.74-1.8,4.24-4.48,4.24h-1.69v-3.28h0.91
					c1.01,0,1.41-0.47,1.41-1.36c0-1.26-0.4-3.66-0.4-5.3c0-1.69,0.77-2.88,2.51-3.24v-0.05c-1.73-0.33-2.51-1.55-2.51-3.21
					c0-1.64,0.4-4.06,0.4-5.32c0-0.89-0.4-1.34-1.41-1.34h-0.91V87h1.69c2.67,0,4.48,1.5,4.48,4.22c0,1.78-0.49,4.1-0.49,5.55
					c0,1.1,0.66,1.74,2.23,1.81v3.19C312.3,101.84,311.65,102.54,311.65,103.58z"/></g><g><g opacity=".7"><rect width="31.42" height="2.25" x="222.32" y="152.23" fill="#da8621"/><rect width="15.44" height="2.25" x="257.37" y="152.23" fill="#fff"/></g><rect width="19.82" height="2.25" x="222.32" y="159.96" fill="#fff"/><rect width="27.26" height="2.25" x="245.55" y="159.96" fill="#fff"/><g opacity=".7"><rect width="5.68" height="2.25" x="222.32" y="167.63" fill="#fff"/><rect width="41.44" height="2.25" x="231.18" y="167.75" fill="#fff"/></g></g><circle cx="163.94" cy="236.37" r="4.14" fill="#d4e3f9"/><circle cx="240.8" cy="124.08" r="4.14" fill="#d4e3f9"/><circle cx="169.53" cy="102.77" r="4.14" fill="#9fbff4"/><circle cx="52.79" cy="245.08" r="4.14" fill="#9fbff4"/><circle cx="405.87" cy="125.89" r="4.14" fill="#9fbff4"/></svg>