<svg xmlns="http://www.w3.org/2000/svg" data-name="Tow Color" viewBox="0 0 1000 800"><path d="M79.19 629.795a1.003 1.003 0 0 0 1 1h839.62a1.003 1.003 0 0 0 1-1 1.003 1.003 0 0 0-1-1H80.19a1.003 1.003 0 0 0-1 1ZM200.45 533.485a1.003 1.003 0 0 0 1 1h597.11a1.003 1.003 0 0 0 1-1 1.003 1.003 0 0 0-1-1H201.45a.99.99 0 0 0-1 1Z" data-name="Layer 1"/><g data-name="Layer 2"><path fill="#fff" d="M652.05 272.175v261.31H333.62v-261.31a50.076 50.076 0 0 1 50.01-50.02h218.41a50.076 50.076 0 0 1 50.01 50.02Z"/><path fill="#fff" d="M565.89 267.525a12.808 12.808 0 0 1-12.79 12.79h-1.58v-25.58h1.58a12.808 12.808 0 0 1 12.79 12.79Z"/><path fill="#2e45e5" d="M553.1 252.735h-3.58v29.58h3.58a14.79 14.79 0 0 0 0-29.58Zm0 27.58h-1.58v-25.58h1.58a12.79 12.79 0 0 1 0 25.58Z"/><path fill="#fff" d="M434 254.735v25.58h-1.57a12.79 12.79 0 1 1 0-25.58H434Z"/><path fill="#2e45e5" d="M432.43 252.735a14.79 14.79 0 0 0 0 29.58H436v-29.58h-3.57Zm1.57 27.58h-1.57a12.79 12.79 0 1 1 0-25.58H434Z"/><path fill="#2e45e5" d="M429.92 259.385c-.21.02-5.24.46-6.66 6.87a.996.996 0 0 0 .76 1.19.82.82 0 0 0 .22.02 1.013 1.013 0 0 0 .98-.78c1.09-4.9 4.7-5.29 4.86-5.3a.997.997 0 0 0 .92-1.07 1.014 1.014 0 0 0-1.08-.93ZM562.56 266.255c-1.42-6.41-6.45-6.85-6.66-6.87a1.003 1.003 0 0 0-.16 2c.15.01 3.77.39 4.86 5.3a.994.994 0 0 0 .98.78 1.798 1.798 0 0 0 .22-.02.996.996 0 0 0 .76-1.19Z"/><path d="M603.03 220.155H384.62a52.075 52.075 0 0 0-52.01 52.02v263.31h322.43v-263.31a52.075 52.075 0 0 0-52.01-52.02Zm50.01 313.33H334.61v-261.31a50.076 50.076 0 0 1 50.01-50.02h218.41a50.076 50.076 0 0 1 50.01 50.02v261.31Z"/><path fill="#2e45e5" d="M730.73 557.495c-25.27-77.16-80.27-155.63-109-186.96a81.433 81.433 0 0 0-44.91-24.86 58.204 58.204 0 0 0-10.62-.98l-41.5-.01.54 5.83-33.65 25.59-31.62-25.19v-6.23h-41.98l-5.45 1a81.556 81.556 0 0 0-44.91 24.86c-30.24 32.97-84.23 109.55-109.06 185.36a8.614 8.614 0 0 0 3.31 9.82c10.57 7.32 37.32 19.69 63.68 24.28l335.59.01.08-.01c26.31-4.58 56-15.62 66.19-22.68a8.633 8.633 0 0 0 3.31-9.83Z"/><path fill="#fff" d="m525.54 352.265-33.89 22.72-31.76-20.87a170.802 170.802 0 0 0-.1-23.82h65.81a65.148 65.148 0 0 0-.06 21.97Z"/><path fill="#2e45e5" d="M528.06 328.295H457.6l.11 1.09a168.455 168.455 0 0 1 .15 25.16l-.05.59 33.85 22.25 36.06-24.18-.11-.63a62.899 62.899 0 0 1 .19-23.08Zm-68.27 2h65.81a65.148 65.148 0 0 0-.06 21.97l-33.89 22.72-31.76-20.87a170.801 170.801 0 0 0-.1-23.82Z"/><path fill="#ffc062" d="M567.46 343.305a1.986 1.986 0 0 1-1.33 1.42c-37.96 11.68-63.3 22.65-73.52 31.79 3.26-5.9 13.39-16.56 34.04-24.62l.72-.56-.1-.55a60.43 60.43 0 0 1 .46-20.95l4.2-3.56c2.86.17 21.65 1.75 35.03 15.19a1.893 1.893 0 0 1 .5 1.84Z"/><path fill="#fff" d="M549.52 252.055v23.15a56.76 56.76 0 0 1-113.52 0v-23.15a26.957 26.957 0 0 1 26.93-26.92h59.66a26.957 26.957 0 0 1 26.93 26.92Z"/><path fill="#2e45e5" d="M522.59 223.135h-59.66a28.957 28.957 0 0 0-28.93 28.92v23.15a58.76 58.76 0 0 0 117.52 0v-23.15a28.957 28.957 0 0 0-28.93-28.92Zm26.93 52.07a56.76 56.76 0 1 1-113.52 0v-23.15a26.957 26.957 0 0 1 26.93-26.92h59.66a26.957 26.957 0 0 1 26.93 26.92v23.15Z"/><path fill="#ffc062" d="M417.56 343.305a1.986 1.986 0 0 0 1.33 1.42c37.96 11.68 63.3 22.65 73.52 31.79-3.26-5.9-13.39-16.56-34.04-24.62l-.72-.56.1-.55a60.43 60.43 0 0 0-.46-20.95l-4.2-3.56c-2.86.17-21.65 1.75-35.03 15.19a1.894 1.894 0 0 0-.5 1.84Z"/><path fill="#2e45e5" d="M492.41 376.515c-.26-.48-.58-.99-.94-1.53-3.98-6-13.84-15.4-32.27-22.76a3.95 3.95 0 0 1-.41-.16c-.02-.01-.09-.04-.18-.08a2.454 2.454 0 0 1-.24-.1l-.69-.37a16.564 16.564 0 0 1-6.12-5.57.998.998 0 0 1 1.71-1.03 13.342 13.342 0 0 0 3.68 3.76l.01.01c.08.06.18.13.28.2q.375.255.72.48l.01-.05c.57.31 1.25.65 1.89.95l.13.14c22.29 8.87 32.35 20.83 34.87 26.57a1.746 1.746 0 0 1-1.59 2.46 1.765 1.765 0 0 1-1.24-.51c-.22-.22-.46-.44-.7-.67l.12-2.56c.32.27.65.54.96.82Z"/><path d="m551.4 252.655-.76 1.36-14.74-19.86a9.914 9.914 0 0 0-12.43-2.95l-25.39 12.73a9.5 9.5 0 0 1-8.58-.05l-24.9-12.85a9.906 9.906 0 0 0-12.09 2.35l-17.8 20.66-.63-1.48c-5.57-13.1-8.45-33.29-2.32-48.87 5.05-12.85 19.74-17.79 26.79-20.16.97-.32 1.79-.6 2.43-.84.11-.11.32-.34.51-.55 7.89-8.59 19.2-12.94 33.62-12.94 15.49 0 26.02 8.49 30.52 12.12a17.683 17.683 0 0 0 1.63 1.25c.44.09 1.04.22 1.71.36 7.91 1.69 26.41 5.63 29.48 25.09 3.87 24.5-6.94 44.44-7.05 44.63ZM513.26 311.805l-.18-.63a18.213 18.213 0 0 0-17.47-13.24h-5.78a18.188 18.188 0 0 0-17.67 13.84L434 275.585v29.65a32.859 32.859 0 0 0 13.24 26.31c14.11 10.43 33.46 22.87 45.51 22.87s31.4-12.44 45.51-22.87a32.845 32.845 0 0 0 13.24-26.31v-29.65Z"/><path fill="#fff" d="M497.98 314.025a1.003 1.003 0 0 0-1.25-.67c-9.02 2.74-12.05-3.97-12.18-4.27a1 1 0 0 0-1.84.78 10.975 10.975 0 0 0 9.94 6.15 15.893 15.893 0 0 0 4.66-.75.997.997 0 0 0 .67-1.24ZM680.02 494.715l-24.53 119.45a18.37 18.37 0 0 1-17.93 14.63H349.85a18.389 18.389 0 0 1-17.94-14.63l-24.53-119.45a32.242 32.242 0 0 1 31.59-38.73h309.47a32.24 32.24 0 0 1 31.58 38.73Z"/><path d="M674.98 466.585a34.115 34.115 0 0 0-26.54-12.6H338.97a34.233 34.233 0 0 0-33.54 41.13l24.53 119.45a20.372 20.372 0 0 0 19.89 16.23h287.71a20.372 20.372 0 0 0 19.89-16.23l24.53-119.45a34.111 34.111 0 0 0-7-28.53Zm5.04 28.13-24.53 119.45a18.37 18.37 0 0 1-17.93 14.63H349.85a18.389 18.389 0 0 1-17.94-14.63l-24.53-119.45a32.242 32.242 0 0 1 31.59-38.73h309.47a32.24 32.24 0 0 1 31.58 38.73Z"/><path fill="#2e45e5" d="M464.63 355.975c-1.62-.56-3.14-.11-3.54 1.05a1.966 1.966 0 0 0 .48 1.94 3.886 3.886 0 0 0 1.66 1.07 4.244 4.244 0 0 0 1.36.24 2.168 2.168 0 0 0 2.19-1.29 1.966 1.966 0 0 0-.48-1.94 3.986 3.986 0 0 0-1.67-1.07ZM522.47 357.025c-.4-1.16-1.93-1.61-3.54-1.05a3.886 3.886 0 0 0-1.66 1.07 1.843 1.843 0 0 0 1.1 3.18 2.978 2.978 0 0 0 .6.05 4.108 4.108 0 0 0 1.36-.24c1.62-.55 2.54-1.85 2.14-3.01Z"/><path fill="#ffc062" d="M491 512.375a30.01 30.01 0 1 0 30.01 30.01 30.04 30.04 0 0 0-30.01-30.01Z"/><path fill="#fff" d="M474.38 545.315a2.293 2.293 0 0 1-.16-3.39l7.73-7.73a.997.997 0 1 0-1.41-1.41l-7.73 7.73a4.304 4.304 0 0 0 .28 6.35l7.51 6.26a.97.97 0 0 0 .64.23.99.99 0 0 0 .77-.36 1 1 0 0 0-.13-1.41ZM508.44 540.505l-7.73-7.73a.997.997 0 1 0-1.41 1.41l7.73 7.73a2.281 2.281 0 0 1 .67 1.73 2.257 2.257 0 0 1-.83 1.66l-7.51 6.26a1.008 1.008 0 0 0-.13 1.41.99.99 0 0 0 .77.36 1.026 1.026 0 0 0 .64-.23l7.51-6.26a4.304 4.304 0 0 0 .29-6.34ZM494.96 528.115a.994.994 0 0 0-1.24.68l-8.04 27.19a.994.994 0 0 0 .68 1.24.903.903 0 0 0 .28.04 1.002 1.002 0 0 0 .96-.72l8.04-27.19a1.002 1.002 0 0 0-.68-1.24Z"/><path fill="#ffc062" d="M467.8 420.745a5.213 5.213 0 0 0-2.24-1.19c.04-.34.08-.68.13-1.01 2.7-17.18-.66-58.31-.81-60.05a.999.999 0 0 0-1.99.17c.04.42 3.48 42.63.83 59.58-.05.34-.09.68-.13 1.02a7.464 7.464 0 0 0-.82 0 4.525 4.525 0 0 0-3.12 1.17 2.502 2.502 0 0 0-.24 2.79 7.01 7.01 0 0 0 3.9 3.31 37.387 37.387 0 0 0 1.43 8.39 1.002 1.002 0 0 0 .96.72.905.905 0 0 0 .28-.04 1.006 1.006 0 0 0 .68-1.24 35.933 35.933 0 0 1-1.36-8.23 6.52 6.52 0 0 0 3-2.86 2.268 2.268 0 0 0-.5-2.53ZM529.03 425.135a5.288 5.288 0 0 0-2.77-1.43 306.228 306.228 0 0 0-4.96-33.78 94.943 94.943 0 0 1-.68-31.73.996.996 0 1 0-1.96-.36 97.094 97.094 0 0 0 .69 32.48 309.576 309.576 0 0 1 4.91 33.17 3.933 3.933 0 0 0-3.27 1.83 3.752 3.752 0 0 0-.23 3.68 5.605 5.605 0 0 0 3.64 2.88c-.31 6.11-1.05 12-1.06 12.07a1.002 1.002 0 0 0 .87 1.12c.04 0 .08.01.13.01a.994.994 0 0 0 .99-.87c.01-.07.79-6.24 1.09-12.53a6.47 6.47 0 0 0 3.13-2.96 3.162 3.162 0 0 0-.52-3.58Z"/><path fill="#fff" d="M605.21 433.625a1.003 1.003 0 0 0-1 1v21.36a1 1 0 0 0 2 0v-21.36a1.003 1.003 0 0 0-1-1ZM394.42 432.295a1 1 0 0 0-1.99.21c1.03 9.98.01 23.92 0 24.06a.997.997 0 0 0 .92 1.07h.08a1.002 1.002 0 0 0 1-.92c.01-.15 1.04-14.27-.01-24.42Z"/><path fill="#2e45e5" d="M551.12 253.105a.997.997 0 0 0-1.41-.06l-14.09 12.9a17.018 17.018 0 0 0-33.9 1.89h-20.9a17.016 17.016 0 0 0-33.85-2.23l-10.56-12.39a.999.999 0 0 0-1.41-.11.999.999 0 0 0-.11 1.41l11.9 13.96a17.022 17.022 0 0 0 33.95 1.36h21.05a17.023 17.023 0 0 0 33.95-1.29l15.31-14.03a.997.997 0 0 0 .07-1.41Zm-85.36 29.89a15.033 15.033 0 1 1 12.95-12.95 15.044 15.044 0 0 1-12.95 12.95Zm54.94 0a15.033 15.033 0 1 1 12.94-12.95 15.055 15.055 0 0 1-12.94 12.95ZM492.61 376.515c.26-.48.58-.99.94-1.53 3.98-6 13.84-15.4 32.27-22.76a3.95 3.95 0 0 0 .41-.16c.02-.01.09-.04.18-.08a2.454 2.454 0 0 0 .24-.1l.69-.37a16.564 16.564 0 0 0 6.12-5.57.998.998 0 0 0-1.71-1.03 13.342 13.342 0 0 1-3.68 3.76l-.01.01c-.08.06-.18.13-.28.2q-.375.255-.72.48l-.01-.05c-.57.31-1.25.65-1.89.95l-.13.14c-22.29 8.87-32.35 20.83-34.87 26.57a1.746 1.746 0 0 0 1.59 2.46 1.765 1.765 0 0 0 1.24-.51c.22-.22.46-.44.7-.67l-.12-2.56c-.33.27-.65.54-.96.82Z"/></g><g data-name="Layer 3"><path fill="#fff" d="m839.75 518.755-11.86 82.65a11.978 11.978 0 0 1-11.8 10.22h-24.84a11.96 11.96 0 0 1-11.79-10.22l-11.87-82.65Z"/><path d="m765.28 516.755 12.19 84.94a13.988 13.988 0 0 0 13.78 11.93h24.84a13.988 13.988 0 0 0 13.78-11.93l12.19-84.94Zm50.81 94.87h-24.84a11.96 11.96 0 0 1-11.79-10.22l-11.87-82.65h72.16l-11.86 82.65a11.978 11.978 0 0 1-11.8 10.22Z"/><path fill="#2e45e5" d="M803.67 563.155a8.895 8.895 0 1 0 8.9 8.89 8.903 8.903 0 0 0-8.9-8.89ZM833.55 509.635h-59.76a13.102 13.102 0 0 0-13.09 13.09v1h85.93v-1a13.087 13.087 0 0 0-13.08-13.09Z"/><path fill="#2e45e5" d="M827.27 498.735h-47.19a8.559 8.559 0 0 0-8.55 8.55v4.46h64.3v-4.46a8.58 8.58 0 0 0-8.56-8.55ZM835.65 547.845l-.65 4.48a173.398 173.398 0 0 1-31.33 2.87h-.06a172.137 172.137 0 0 1-31.2-2.86l-.65-4.49-4.75 3.7-.52.45.13.48a1.448 1.448 0 0 0-.02.42l5.03 32.01a7.213 7.213 0 0 0 6.14 6.06 181.962 181.962 0 0 0 25.64 1.68 168.543 168.543 0 0 0 25.93-1.82 7.261 7.261 0 0 0 6.04-5.97l5.36-32.04a1.147 1.147 0 0 0 .01-.19l.15-.69Zm-31.98 33.1a8.895 8.895 0 1 1 8.9-8.9 8.905 8.905 0 0 1-8.9 8.9Z"/><path fill="#ffc062" d="M812.57 572.045a8.895 8.895 0 1 1-8.9-8.89 8.907 8.907 0 0 1 8.9 8.89Z"/></g><g data-name="Layer 4"><path fill="#2e45e5" d="m263.02 576.925-33.95-7.57a12.842 12.842 0 0 0-5.65.28l-104.4 29.61a5.116 5.116 0 0 0-3.05 5.18 3.18 3.18 0 0 0 2.35 3.14l30.3 6.36.04.01a12.266 12.266 0 0 0 2.18.19 12.62 12.62 0 0 0 3.46-.48l108.95-31.15a2.863 2.863 0 0 0-.23-5.57Zm-38.94-2.72a10.879 10.879 0 0 1 1.81.16l21.56 4.81a1.074 1.074 0 0 1 .1 2.09l-92.19 25.81a11.186 11.186 0 0 1-4.85.24l-24.52-3.96a1.073 1.073 0 0 1-.11-2.09l95.21-26.65a11.235 11.235 0 0 1 2.99-.41Z"/><path fill="#fff" d="m247.45 579.175-21.56-4.81a10.879 10.879 0 0 0-1.81-.16 11.232 11.232 0 0 0-2.99.41l-95.21 26.65a1.073 1.073 0 0 0 .11 2.09l24.52 3.96a11.186 11.186 0 0 0 4.85-.24l92.19-25.81a1.074 1.074 0 0 0-.1-2.09Z"/></g></svg>