<svg xmlns="http://www.w3.org/2000/svg" enable-background="new 0 0 500 500" viewBox="0 0 500 500"><rect width="298.21" height="298.21" x="99.79" y="66.46" fill="#d2e1f7" transform="rotate(180 248.896 215.566)"/><rect width="72.14" height="72.14" x="297.19" y="176.04" fill="#d2e1f7" transform="rotate(180 333.257 212.113)"/><rect width="70.14" height="16.65" x="170.58" y="34.17" fill="#d2e1f7" transform="rotate(180 205.649 42.497)"/><rect width="43.7" height="3.08" x="245.88" y="79.16" fill="#505ea3" opacity=".5"/><rect width="13.48" height="3.08" x="294.72" y="79.16" fill="#505ea3" opacity=".5"/><rect width="3.7" height="3.08" x="235.74" y="79.16" fill="#505ea3"/><rect width="18.48" height="3.08" x="349.86" y="79.16" fill="#505ea3" opacity=".8"/><rect width="31.2" height="3.08" x="314.67" y="79.16" fill="#505ea3" opacity=".5"/><polygon fill="#505ea3" points="297.38 137.49 294.72 137.49 245.88 137.49 245.88 140.57 294.72 140.57 297.38 140.57 308.2 140.57 308.2 137.49"/><rect width="3.7" height="3.08" x="235.74" y="137.49" fill="#505ea3"/><rect width="10.19" height="3.08" x="349.86" y="137.49" fill="#505ea3" opacity=".5"/><rect width="31.2" height="3.08" x="314.67" y="137.49" fill="#505ea3" opacity=".5"/><rect width="8.94" height="3.08" x="245.88" y="88.88" fill="#505ea3"/><rect width="50.36" height="3.08" x="258.72" y="88.88" fill="#505ea3" opacity=".5"/><rect width="3.7" height="3.08" x="235.74" y="88.88" fill="#505ea3"/><rect width="75.01" height="3.08" x="314.67" y="88.88" fill="#505ea3" opacity=".5"/><rect width="8.94" height="3.08" x="245.88" y="147.21" fill="#505ea3"/><rect width="8.94" height="3.08" x="318.24" y="147.21" fill="#505ea3"/><rect width="50.36" height="3.08" x="258.72" y="147.21" fill="#505ea3" opacity=".5"/><rect width="3.7" height="3.08" x="235.74" y="147.21" fill="#505ea3"/><rect width="54.67" height="3.08" x="335.01" y="147.21" fill="#505ea3"/><rect width="27.18" height="3.08" x="245.88" y="98.6" fill="#505ea3" opacity=".3"/><rect width="13.23" height="3.08" x="276.34" y="98.6" fill="#505ea3"/><rect width="3.7" height="3.08" x="235.74" y="98.6" fill="#505ea3"/><rect width="40.99" height="3.08" x="295.64" y="98.6" fill="#505ea3"/><rect width="48.61" height="3.08" x="341.07" y="98.6" fill="#505ea3" opacity=".5"/><rect width="72.04" height="3.08" x="245.88" y="108.32" fill="#505ea3"/><rect width="3.7" height="3.08" x="235.74" y="108.32" fill="#505ea3"/><rect width="53.18" height="3.08" x="321.69" y="108.32" fill="#505ea3"/><rect width="36.98" height="3.08" x="245.88" y="118.04" fill="#505ea3" opacity=".5"/><rect width="3.7" height="3.08" x="235.74" y="118.04" fill="#505ea3"/><rect width="70.49" height="3.08" x="304.38" y="118.04" fill="#505ea3" opacity=".5"/><rect width="9.5" height="3.08" x="380.18" y="118.04" fill="#505ea3"/><rect width="9.5" height="3.08" x="287.77" y="118.04" fill="#505ea3"/><g><rect width="18.6" height="3.08" x="245.88" y="127.77" fill="#505ea3"/><rect width="18.6" height="3.08" x="283.38" y="127.77" fill="#505ea3"/><rect width="3.7" height="3.08" x="235.74" y="127.77" fill="#505ea3"/><rect width="48.17" height="3.08" x="308.9" y="127.77" fill="#505ea3" opacity=".3"/><rect width="26.25" height="3.08" x="363.43" y="127.77" fill="#505ea3" opacity=".5"/><rect width="9.5" height="3.08" x="269.52" y="127.77" fill="#505ea3" opacity=".5"/></g><g><path fill="#03254e" d="M326.91,462.24H148.33c-4.55,0-8.25-3.69-8.25-8.25V125.76c0-4.55,3.69-8.25,8.25-8.25h178.58
					c4.55,0,8.25,3.69,8.25,8.25v328.24C335.15,458.55,331.46,462.24,326.91,462.24z"/><rect width="186.07" height="301.03" x="144.58" y="133.53" fill="#505ea3"/><rect width="176.54" height="288.66" x="149.35" y="139.72" fill="#505ea3" opacity=".2"/><path fill="#505ea3" d="M241.74,453.69h-8.24c-0.98,0-1.77-0.79-1.77-1.77v-8.24c0-0.98,0.79-1.77,1.77-1.77h8.24
						c0.98,0,1.77,0.79,1.77,1.77v8.24C243.51,452.9,242.71,453.69,241.74,453.69z M233.73,451.69h7.78v-7.78h-7.78V451.69z"/></g><g><path fill="#f9d8c7" d="M385.12,340.5c1.64,20.54-0.53,37.47-4.84,37.82c-4.31,0.34-9.14-16.03-10.78-36.57
				c-1.64-20.54,0.53-37.47,4.84-37.82C378.66,303.58,383.48,319.95,385.12,340.5z"/><path fill="#f9d8c7" d="M384.71,371.19c7.65-11.18,34.73,52.91,37.39,67.15c2.66,14.24-5.38,1.44-16.22-18.69
						C395.05,399.51,381.7,375.58,384.71,371.19z"/><polygon fill="#f9d8c7" points="427.52 439.58 423.63 430.84 411.71 438.75 416.87 445.18"/><path fill="#f9d8c7" d="M427.52,439.58l1.25,3.97l-9.12,8.18l-8.47,1.06l3.69-3.32c0,0,2.3-2.51,2-4.29
					C416.57,443.4,427.52,439.58,427.52,439.58z"/><path fill="#03254e" d="M428.01,440.86c0,0-5.06,10.84-13.14,8.6c0,0-8.66,5.4-7.45,8.2c1.21,2.8,7.2-0.64,7.2-0.64l17.08-7.67
					C431.7,449.35,431.4,444.97,428.01,440.86z"/><path fill="#03213f" d="M364.64,306.03c0,0-0.73,57.89,7.94,72.51c8.67,14.62,36.64,63.71,36.64,63.71l17.21-10.07l-34.3-69.62
				l-2.38-57.29L364.64,306.03z"/><path fill="#f9d8c7" d="M395.29,341.49c-4.12,20.19-10.89,35.86-15.13,35c-4.24-0.86-4.34-17.93-0.23-38.13
				c4.12-20.19,10.89-35.86,15.13-35S399.4,321.29,395.29,341.49z"/><path fill="#f9d8c7" d="M378.51,372.46c11.28-7.5,7.85,62.01,4.99,76.2c-2.87,14.2-5.53-0.68-8.04-23.41
						C372.95,402.53,374.07,375.42,378.51,372.46z"/><polygon fill="#f9d8c7" points="387.2 443.15 386.38 451.47 374.36 451.28 374.45 442.64"/><path fill="#f9d8c7" d="M386.38,451.47l-0.81,4.08l-11.93,2.8l-7.94-3.13l4.83-1.14c0,0,3.23-1.1,3.81-2.8
					C374.94,449.57,386.38,451.47,386.38,451.47z"/><path fill="#03254e" d="M386.2,452.83c0,0-9.64,7.09-15.66,1.25c0,0-10.19,0.58-10.47,3.62c-0.28,3.03,6.62,2.89,6.62,2.89
					l18.67,1.47C385.36,462.05,387.2,458.06,386.2,452.83z"/><path fill="#03254e" d="M376.58,306.08c0,0-6.89,58.53-7.91,67.54s2.72,71.23,2.72,71.23l19.38,0.17c0,0,0-67.32,0.51-70.04
				c0.51-2.72,14.86-47.47,10.23-69.89"/><polygon fill="#f9d8c7" points="390.99 239.04 393.03 252.56 380.51 252.99 381.43 239.04"/><path fill="#d7cfbb" d="M390.99,239.04v2.71c-1.86,0.63-4.96,3.76-6.47,3.72c-1.44-0.02-2.54-0.72-3.08-1.29v-3.72l6.96-1.43
						H390.99z" opacity=".5"/><path fill="#f9d8c7" d="M395.08,229.73c0,6.25-7.43,14.1-12.65,14.04c-3.93-0.05-6.25-7.79-6.25-14.04
						c0-6.25,4.23-11.31,9.45-11.31C390.85,218.42,395.08,223.49,395.08,229.73z"/><path fill="#03254e" d="M378.63,225.28c0,0,1.21,1.53,3.58,2.79c1.19,0.63,3.12,1.68,4.66,2.25c4.63,1.7,3.96,8.82,3.96,8.82
						s7.89-5.33,3.64-15.36c-3.43-8.09-14.87-5.8-15.77-1.96c0,0-3.67,1.61-2.59,6.47C376.11,228.28,376.62,225.78,378.63,225.28z"/><path fill="#03254e" d="M394.35,221.38c0.35-0.2,0.69-0.37,1.02-0.52c2.41-1.1,4.82-1.98,7.47-1.02c2.88,1.04,4.09,3.84,4.38,6.7
					c0.18,1.76,0.01,3.53-0.05,5.29c-0.06,1.73,0.25,3.47,0.55,5.16c0.49,2.7,1.65,5.6,0.93,8.35c-0.69,2.64-3.34,4.45-6.01,4.48
					c-3.03,0.04-4.79-2.66-5.28-5.37c-0.32-1.76-0.15-3.74,0.28-5.49c0.43-1.73,1.15-3.35,1.16-5.17c0.01-2.17-0.53-4.44-1.95-6.13"/><path fill="#505ea3" d="M393.4,221.93c0,0,1.74,2.57,2.12,5.94l1.42-0.18c0,0-1.36-5.3-2.55-6.22L393.4,221.93z"/><g><path fill="#f9d8c7" d="M378.09,253.61c1.42,1.52,1.67,3.8,0.92,5.73c-3.36,8.67-15.99,42.28-22.51,40.17
						c-7.66-2.48,5.94-31.87,10.3-38.64C370.43,255.22,374.67,249.93,378.09,253.61z"/><path fill="#f9d8c7" d="M359.78,297.13c-0.74,1.4-2.27,2.19-3.84,2.27c-7.38,0.4-33.68,1.61-35.1-1.25
								c-1.66-3.33,36.38-6.84,37.61-5.29C359.36,294.02,360.79,295.22,359.78,297.13z"/><path fill="#eab296" d="M361.21,271.82l-8.66,19.26l-20.99,2.86l0.72,5.99c0,0,24.69,0.99,27.83-0.92
						c3.14-1.91,12.93-22.12,12.93-22.12L361.21,271.82z"/><path fill="#eab296" d="M331.72,294.62l-0.16-0.67l0-0.01l-0.01,0l-2.46-1.26c-0.63-0.32-1.33-0.48-2.03-0.47l-3.02,0.82
							c0,0-0.49,0.83,1.29,0.82c0.46,0,1.1,0.38,1.6,0.73l-1.74,0.25l-4.22,0.93c-1.08,0.23-2.23,1.38-2.01,2.67
							c0,0,0.45,1.79,2.51,2.18l2.81,0.79c1.52,0.15,2.67,0.56,4.14,0.11l3.88-1.57L331.72,294.62z"/><path fill="#c43e0a" d="M376.54,270.18c-0.7,1.61-1.85,4.38-3.32,7.63l-12.72-6.23c0.22-0.5,9.83-23.85,16.4-20.34
						C383.46,254.76,379.19,264.06,376.54,270.18z"/><path fill="#d64e12" d="M366.04,293.77c-0.92,9.36-1.73,12.78-1.73,12.78s10.76,1.63,22.05,1.27c5.51-0.17,11.21-0.9,15.78-2.45
					c0,0-0.84-5.75-0.3-16.34c0.16-3.18,0.59-7.08,1.1-11.19c0.52-4.29,1.1-8.82,1.48-12.97c0-0.01,0-0.01,0-0.01
					c0.48-5.1,0.66-9.68,0.06-12.56c-0.87-4.26-12.28-5.99-12.28-5.99s-7.04,5.93-10.16,4.16c-1.44-0.81-1.18-3.99-1.18-3.99
					c-4.8,0.74-6.81,2.01-8.16,3.53c-4.62,5.13-10.6,17.07-10.57,24.51C362.15,283.32,366.97,284.43,366.04,293.77z"/><rect width="40.56" height="1.98" x="325.6" y="296.85" fill="#1b3689" transform="rotate(179.19 345.878 297.836)"/><polygon fill="#1b3689" points="315.01 299.23 352.75 298.74 341.77 273.15 304.03 273.64"/><polygon fill="#fff" points="313.95 299.24 351.68 298.75 340.7 273.16 302.97 273.65"/><ellipse cx="326.35" cy="286.68" fill="#d2e1f7" rx="2.2" ry="3.32" transform="rotate(-22.606 326.383 286.692)"/><g><path fill="#f9d8c7" d="M400.93,251.03c1.93,0.78,3.12,2.74,3.25,4.81c0.62,9.28,3.86,46.36-2.95,47.2
						c-8,0.99-8.57-32.68-7.48-40.66C394.67,255.72,396.27,249.13,400.93,251.03z"/><path fill="#f9d8c7" d="M406.67,271.41c0,0,1.96,29.73-4.08,32.06c-6.05,2.33-40.26-6.91-40.26-6.91l1.94-4.9l30.3-0.07
						l-1.69-19.61L406.67,271.41z"/><path fill="#f9d8c7" d="M403.43,301.32c-1.25,1.56-3.34,2.19-5.33,1.93c-9.29-1.25-39.99-5.85-41.09-9.75
									c-1.28-4.54,44.61-0.04,45.77,2.18C403.64,297.34,405.14,299.18,403.43,301.32z"/><path fill="#f9d8c7" d="M355.58,290.66c0.29,1.47-1.01,3.15,1.51,5.04c2.53,1.89,7.42,0.42,7.42,0.42l0.24-4.55
						c0,0-1.09-0.5-1.52-1.07c-0.43-0.57-2.36-2.46-5.13-2.45c-2.77,0.01-6.85,0.57-6.99,1.45
						C350.98,290.37,355.36,289.51,355.58,290.66z"/><path fill="#c43e0a" d="M407.42,271.97l-14.99,0.6c-0.18-2.66-1.17-24.2,6.95-24.23C406.75,248.32,407.33,264.32,407.42,271.97z"/></g></g></g><g><path fill="#9fbff4" d="M79.87,405.24h145.8c2.06,0,3.72-1.67,3.72-3.72v-94.29c0-2.06-1.67-3.72-3.72-3.72H79.87
					c-2.06,0-3.72,1.67-3.72,3.72v94.29C76.15,403.57,77.82,405.24,79.87,405.24z"/><path fill="#03254e" d="M76.31,318.24h153.24v-11.5c0-2.06-1.67-3.72-3.72-3.72H80.04c-2.06,0-3.72,1.67-3.72,3.72V318.24z"/><circle cx="109.01" cy="310.62" r="2.2" fill="#fff"/><circle cx="98.48" cy="310.62" r="2.2" fill="#fff"/><circle cx="87.95" cy="310.62" r="2.2" fill="#fff"/><rect width="36.89" height="2.6" x="96.3" y="329.27" fill="#505ea3"/><rect width="11.38" height="2.6" x="137.53" y="329.27" fill="#d64e12" opacity=".5"/><rect width="3.12" height="2.6" x="87.74" y="329.27" fill="#505ea3"/><rect width="15.6" height="2.6" x="184.08" y="329.27" fill="#505ea3"/><rect width="26.35" height="2.6" x="154.37" y="329.27" fill="#505ea3"/><polygon fill="#505ea3" points="139.78 378.52 137.53 378.52 96.3 378.52 96.3 381.12 137.53 381.12 139.78 381.12 148.91 381.12 148.91 378.52"/><rect width="3.12" height="2.6" x="87.74" y="378.52" fill="#505ea3"/><rect width="8.6" height="2.6" x="184.08" y="378.52" fill="#505ea3"/><rect width="26.35" height="2.6" x="154.37" y="378.52" fill="#d64e12" opacity=".5"/><rect width="7.54" height="2.6" x="96.3" y="337.48" fill="#505ea3"/><rect width="42.51" height="2.6" x="107.14" y="337.48" fill="#9fbff4" opacity=".5"/><rect width="3.12" height="2.6" x="87.74" y="337.48" fill="#505ea3"/><rect width="63.33" height="2.6" x="154.37" y="337.48" fill="#505ea3"/><rect width="7.54" height="2.6" x="96.3" y="386.72" fill="#505ea3"/><rect width="7.54" height="2.6" x="157.39" y="386.72" fill="#505ea3"/><rect width="42.51" height="2.6" x="107.14" y="386.72" fill="#9fbff4" opacity=".5"/><rect width="3.12" height="2.6" x="87.74" y="386.72" fill="#505ea3"/><rect width="46.16" height="2.6" x="171.54" y="386.72" fill="#505ea3"/><g><rect width="22.95" height="2.6" x="96.3" y="345.69" fill="#505ea3"/><rect width="11.17" height="2.6" x="122.01" y="345.69" fill="#505ea3"/><rect width="3.12" height="2.6" x="87.74" y="345.69" fill="#505ea3"/><rect width="34.6" height="2.6" x="138.3" y="345.69" fill="#505ea3"/><rect width="41.04" height="2.6" x="176.66" y="345.69" fill="#d64e12" opacity=".5"/></g><g><rect width="60.82" height="2.6" x="96.3" y="353.89" fill="#505ea3"/><rect width="3.12" height="2.6" x="87.74" y="353.89" fill="#505ea3"/><rect width="44.9" height="2.6" x="160.3" y="353.89" fill="#505ea3"/></g><g><rect width="31.22" height="2.6" x="96.3" y="362.1" fill="#d64e12" opacity=".5"/><rect width="3.12" height="2.6" x="87.74" y="362.1" fill="#505ea3"/><rect width="59.51" height="2.6" x="145.68" y="362.1" fill="#505ea3"/><rect width="8.02" height="2.6" x="209.68" y="362.1" fill="#505ea3"/><rect width="8.02" height="2.6" x="131.66" y="362.1" fill="#505ea3"/></g><g><rect width="15.7" height="2.6" x="96.3" y="370.31" fill="#505ea3"/><rect width="15.7" height="2.6" x="127.95" y="370.31" fill="#505ea3"/><rect width="3.12" height="2.6" x="87.74" y="370.31" fill="#505ea3"/><rect width="40.67" height="2.6" x="149.5" y="370.31" fill="#505ea3"/><rect width="22.16" height="2.6" x="195.54" y="370.31" fill="#9fbff4" opacity=".5"/><rect width="8.02" height="2.6" x="116.26" y="370.31" fill="#505ea3"/></g></g><g><rect width="53.38" height="47.53" x="69.21" y="187.93" fill="#9fbff4"/><path fill="#fff" d="M87.46,221.43l-9.77-6.81v-4.02l9.77-6.84v4.52l-6.07,4.32l6.07,4.36V221.43z"/><path fill="#fff" d="M90.62,224.48l7.78-25.55h2.82l-7.78,25.55H90.62z"/><path fill="#fff" d="M104.32,221.43v-4.49l6.07-4.36l-6.07-4.32v-4.52l9.77,6.84v4.02L104.32,221.43z"/></g><g><rect width="32.64" height="29.07" x="160.12" y="72.27" fill="#03254e"/><path fill="#fff" d="M171.29,92.76l-5.98-4.17v-2.46l5.98-4.19v2.76l-3.71,2.64l3.71,2.67V92.76z"/><path fill="#fff" d="M173.22,94.62l4.76-15.63h1.73l-4.76,15.63H173.22z"/><path fill="#fff" d="M181.6,92.76v-2.74l3.71-2.67l-3.71-2.64v-2.76l5.98,4.19v2.46L181.6,92.76z"/></g><g><path fill="#c2d2dc" d="M220.28,280.11h-55.16c-1.53,0-2.78-1.24-2.78-2.78v-52.28c0-1.53,1.24-2.78,2.78-2.78h55.16
				c1.53,0,2.78,1.24,2.78,2.78v52.28C223.06,278.87,221.82,280.11,220.28,280.11z"/><path fill="#d64e12" d="M217.62,277.45h-55.16c-1.53,0-2.78-1.24-2.78-2.78v-52.28c0-1.53,1.24-2.78,2.78-2.78h55.16
				c1.53,0,2.78,1.24,2.78,2.78v52.28C220.4,276.21,219.15,277.45,217.62,277.45z"/><circle cx="190.04" cy="237.88" r="11.33" fill="#fff"/><rect width="35.01" height="3.04" x="172.54" y="260.41" fill="#fff"/></g><g><path fill="#c2d2dc" d="M300.28,280.11h-55.16c-1.53,0-2.78-1.24-2.78-2.78v-52.28c0-1.53,1.24-2.78,2.78-2.78h55.16
				c1.53,0,2.78,1.24,2.78,2.78v52.28C303.05,278.87,301.81,280.11,300.28,280.11z"/><path fill="#9fbff4" d="M297.62,277.45h-55.16c-1.53,0-2.78-1.24-2.78-2.78v-52.28c0-1.53,1.24-2.78,2.78-2.78h55.16
				c1.53,0,2.78,1.24,2.78,2.78v52.28C300.39,276.21,299.15,277.45,297.62,277.45z"/><circle cx="270.04" cy="237.88" r="11.33" fill="#fff"/><rect width="35.01" height="3.04" x="252.53" y="260.41" fill="#fff"/></g><rect width="221" height="30.5" x="163.76" y="162.97" fill="#9fbff4"/><rect width="192.71" height="7.39" x="177.9" y="174.53" fill="#c2d2dc"/><path fill="#9fbff4" d="M297.4,368.93h-54.73c-1.65,0-2.99-1.34-2.99-2.99V304.9c0-1.65,1.34-2.99,2.99-2.99h54.73
			c1.65,0,2.99,1.34,2.99,2.99v61.03C300.39,367.59,299.05,368.93,297.4,368.93z"/><path fill="#9fbff4" d="M299.44,385.37h-58.81c-0.52,0-0.95-0.43-0.95-0.95v-4.87c0-0.52,0.43-0.95,0.95-0.95h58.81
			c0.52,0,0.95,0.43,0.95,0.95v4.87C300.39,384.94,299.97,385.37,299.44,385.37z"/><path fill="#9fbff4" d="M299.44,404.51h-58.81c-0.52,0-0.95-0.43-0.95-0.95v-4.87c0-0.52,0.43-0.95,0.95-0.95h58.81
			c0.52,0,0.95,0.43,0.95,0.95v4.87C300.39,404.08,299.97,404.51,299.44,404.51z"/></svg>