<svg xmlns="http://www.w3.org/2000/svg" enable-background="new 0 0 500 500" viewBox="0 0 500 500"><path fill="#9fbff4" d="M316.46,133.17h-5.96c-1.05-4.64-2.84-9.01-5.21-12.99l4.39-4.39c1.55-1.55,1.55-4.07,0-5.62l-9.61-9.61
			c-1.55-1.55-4.07-1.55-5.62,0l-4.22,4.22c-3.92-2.46-8.26-4.34-12.87-5.51v-6.2c0-2.19-1.78-3.97-3.97-3.97h-13.59
			c-2.19,0-3.97,1.78-3.97,3.97v5.97c-4.64,1.05-9.02,2.84-13,5.2l0,0l-4.38-4.38c-1.55-1.55-4.07-1.55-5.62,0l-9.61,9.61
			c-1.55,1.55-1.55,4.07,0,5.62l4.23,4.23c-2.48,3.92-4.34,8.25-5.51,12.86h-6.21c-2.19,0-3.97,1.78-3.97,3.97v13.59
			c0,2.19,1.78,3.97,3.97,3.97h5.98c1.04,4.64,2.82,9.01,5.2,12.99l-4.39,4.39c-1.55,1.55-1.55,4.07,0,5.62l9.61,9.61
			c1.55,1.55,4.07,1.55,5.62,0l4.22-4.22c0,0,0,0,0,0c3.92,2.46,8.25,4.34,12.86,5.51c0,0,0,0,0,0v6.19c0,2.19,1.78,3.97,3.97,3.97
			h13.59c2.19,0,3.97-1.78,3.97-3.97v-5.97c0,0,0,0,0.01,0c4.64-1.05,9.02-2.83,12.98-5.2c0,0,0,0,0.01,0l4.39,4.39
			c1.55,1.55,4.07,1.55,5.62,0l9.61-9.61c1.55-1.55,1.55-4.07,0-5.62l-4.22-4.22c0,0,0,0,0,0c2.48-3.92,4.36-8.25,5.53-12.86h6.19
			c2.19,0,3.97-1.78,3.97-3.97v-13.59C320.44,134.95,318.66,133.17,316.46,133.17z M266.08,168.73c-13.96,0-25.29-11.32-25.29-25.29
			s11.33-25.29,25.29-25.29c13.98,0,25.31,11.32,25.31,25.29S280.06,168.73,266.08,168.73z"/><path fill="#9fbff4" d="M408.19,284.91l5.05-0.67l-4.66,2.81c2.72,13.13,10.59,22.12,11.2,22.79c0.03,0.03,0.03,0.03,0.03,0.03
				c1.88,2.06,9.02-2.72,10.35-3.93c5.24-4.69,7.66-11.56,9.93-18.01c2.78-7.87,5.42-15.8,8.75-23.45
				c2.66-6.11,5.63-12.11,8.53-18.1l-2.51-7.44l6.29-0.64c0.61-1.33,1.18-2.66,1.75-3.99c2.57-5.99,5.02-12.01,7.29-18.13
				c-1.12,0.39-30.51,11.44-48.3,29.84l2.33,3.75l-6.78,1.33c-2.24,2.81-4.15,5.81-5.63,8.93
				C407.55,269.03,407.01,277.56,408.19,284.91z"/><path fill="#9fbff4" d="M435.91,322.41l0.03,0.03c8.32,3.57,18.07,0.39,26.87-4.87c-1.15-2.39-3.48-7.11-3.69-7.41
				c-0.21-0.3,4.3,3.3,6.9,5.39c12.62-8.38,22.64-20.06,22.64-20.06s-33.32-2.12-45.7,4.3c-1.21,0.64-2.27,1.36-3.18,2.15l1.09,2.54
				l-2.78-0.73C432.22,311.21,435.91,322.41,435.91,322.41z"/><path fill="none" stroke="#212e57" stroke-miterlimit="10" stroke-width="1.513" d="M420.66,346.78c0,0-11.53-71.7,30.48-112.11"/><path fill="none" stroke="#212e57" stroke-miterlimit="10" stroke-width="1.513" d="M421.32,342.9c0,0,18.77-35.58,47.53-42.14"/><path fill="#9fbff4" d="M128.15,108.25h-2.36c-0.42-1.84-1.12-3.57-2.06-5.15l1.74-1.74c0.61-0.61,0.61-1.61,0-2.23l-3.81-3.81
			c-0.61-0.61-1.61-0.61-2.23,0L117.76,97c-1.55-0.98-3.27-1.72-5.1-2.18v-2.45c0-0.87-0.7-1.57-1.57-1.57h-5.38
			c-0.87,0-1.57,0.7-1.57,1.57v2.36c-1.84,0.42-3.57,1.13-5.15,2.06l0,0l-1.74-1.74c-0.61-0.61-1.61-0.61-2.23,0l-3.81,3.81
			c-0.61,0.61-0.61,1.61,0,2.23l1.67,1.67c-0.98,1.55-1.72,3.27-2.18,5.1h-2.46c-0.87,0-1.57,0.7-1.57,1.57v5.38
			c0,0.87,0.7,1.57,1.57,1.57h2.37c0.41,1.84,1.12,3.57,2.06,5.15l-1.74,1.74c-0.61,0.61-0.61,1.61,0,2.23l3.81,3.81
			c0.61,0.61,1.61,0.61,2.23,0l1.67-1.67c0,0,0,0,0,0c1.55,0.98,3.27,1.72,5.1,2.18c0,0,0,0,0,0v2.45c0,0.87,0.7,1.57,1.57,1.57
			h5.38c0.87,0,1.57-0.7,1.57-1.57v-2.36c0,0,0,0,0,0c1.84-0.42,3.57-1.12,5.14-2.06c0,0,0,0,0,0l1.74,1.74
			c0.61,0.61,1.61,0.61,2.23,0l3.81-3.81c0.61-0.61,0.61-1.61,0-2.23l-1.67-1.67c0,0,0,0,0,0c0.98-1.55,1.73-3.27,2.19-5.1h2.45
			c0.87,0,1.57-0.7,1.57-1.57v-5.38C129.72,108.95,129.02,108.25,128.15,108.25z M108.19,122.33c-5.53,0-10.02-4.48-10.02-10.02
			s4.49-10.02,10.02-10.02c5.54,0,10.02,4.48,10.02,10.02S113.73,122.33,108.19,122.33z"/><polygon fill="#212e57" points="460.64 368.31 55.74 368.31 88.59 356.22 427.79 356.22"/><path fill="#505ea3" d="M431.73,149.83v203.41c0,2.67-2.41,4.83-5.41,4.83H90.04c-2.98,0-5.39-2.16-5.39-4.83V149.83
						c0-2.67,2.41-4.83,5.39-4.83h336.28C429.32,145,431.73,147.16,431.73,149.83z"/><path fill="#212e57" d="M421.36,346.53c0,0.01-0.01,0.01-0.01,0.01H95.03c-0.01,0-0.01,0-0.01-0.01v-190h326.35V346.53z"/><path fill="#505ea3" d="M446.74,385.82H69.64c-8.52,0-15.42-6.9-15.42-15.42l0,0c0-1.51,1.23-2.74,2.74-2.74h402.46
						c1.51,0,2.74,1.23,2.74,2.74l0,0C462.16,378.91,455.26,385.82,446.74,385.82z"/><rect width="85.14" height="3.21" x="107.61" y="316.23" fill="#da8621"/><rect width="85.14" height="3.21" x="107.61" y="328.72" fill="#505ea3"/><rect width="85.14" height="3.21" x="213.24" y="316.23" fill="#505ea3"/><rect width="85.14" height="3.21" x="213.24" y="328.72" fill="#da8621"/><rect width="85.14" height="3.21" x="318.88" y="316.23" fill="#505ea3"/><rect width="85.14" height="3.21" x="318.88" y="328.72" fill="#da8621"/><path fill="#fff" d="M361.93,255.93c0,0.77-0.02,1.53-0.05,2.3l-11.53-7.83l-10.42,7.77c0.07-0.73,0.11-1.48,0.11-2.24
						c0-13.74-11.17-24.91-24.89-24.91c-7.97,0-26.55,11.81-42.72,24.91l-9.01-8.14c-1.44-1.3-4.09-3.65-7.59-6.57
						c13.85-11.55,41.06-32.1,59.32-32.1C340.95,209.13,361.93,230.11,361.93,255.93z"/><path fill="#d64e12" d="M350.34,250.4l-10.42,7.77c-1.13,12.68-11.82,22.66-24.78,22.66c-7.97,0-26.55-11.81-42.72-24.91
						l-9.01-8.14c-1.44-1.3-4.09-3.65-7.59-6.57c-13.87-11.55-41.07-32.1-59.32-32.1c-25.8,0-46.8,20.98-46.8,46.8
						c0,0.91,0.02,1.82,0.07,2.72l11.06-8.25l10.35,7.03c-0.02-0.46-0.04-0.91-0.04-1.39c0-13.74,11.17-24.91,24.89-24.91
						c7.97,0,26.55,11.81,42.72,24.91c0,0,7.21,6.28,17.46,14.25c17.68,13.72,44.47,32.44,58.94,32.44
						c25.04,0,45.53-19.76,46.73-44.5L350.34,250.4z"/><path fill="#fff" d="M238.74,256.04c0,0,7.21,6.28,17.46,14.25c-13.74,11.5-41.29,32.44-59.7,32.44
						c-24.89,0-45.31-19.54-46.73-44.08l11.06-8.25l10.35,7.03c0.73,13.08,11.61,23.52,24.85,23.52
						C204,280.95,222.58,269.13,238.74,256.04z"/><rect width="65.02" height="57.91" x="387.47" y="128.48" fill="#d64e12"/><path fill="#fff" d="M409.71,169.28l-11.9-8.3v-4.9l11.9-8.34v5.5l-7.4,5.26l7.4,5.31V169.28z"/><path fill="#fff" d="M413.56,173l9.48-31.13h3.44L417,173H413.56z"/><path fill="#fff" d="M430.26,169.28v-5.46l7.4-5.31l-7.4-5.26v-5.5l11.9,8.34v4.9L430.26,169.28z"/><rect width="80.4" height="4.49" x="107.31" y="168.51" fill="#505ea3"/><rect width="28.04" height="4.49" x="107.31" y="180.61" fill="#505ea3"/><g><g opacity=".7"><rect width="35.73" height="2.56" x="326.6" y="96.88" fill="#da8621"/><rect width="17.56" height="2.56" x="366.46" y="96.88" fill="#9fbff4"/></g><rect width="22.54" height="2.56" x="326.6" y="105.67" fill="#9fbff4" opacity=".7"/><rect width="31" height="2.56" x="353.02" y="105.67" fill="#9fbff4" opacity=".7"/><g opacity=".7"><rect width="6.46" height="2.56" x="326.6" y="114.39" fill="#9fbff4"/><rect width="47.12" height="2.56" x="336.68" y="114.53" fill="#9fbff4"/></g></g><g><g opacity=".7"><rect width="35.73" height="2.56" x="17.31" y="168.41" fill="#da8621"/><rect width="17.56" height="2.56" x="57.17" y="168.41" fill="#9fbff4"/></g><rect width="22.54" height="2.56" x="17.31" y="177.2" fill="#9fbff4" opacity=".7"/><rect width="31" height="2.56" x="43.72" y="177.2" fill="#9fbff4" opacity=".7"/><g opacity=".7"><rect width="6.46" height="2.56" x="17.31" y="185.92" fill="#9fbff4"/><rect width="47.12" height="2.56" x="27.39" y="186.06" fill="#9fbff4"/></g></g><g><path fill="#505ea3" d="M154.99,131.07h92.88c1.2,0,2.17-0.97,2.17-2.17V78.73c0-1.2-0.97-2.17-2.17-2.17h-92.88
					c-1.2,0-2.17,0.97-2.17,2.17v50.17C152.82,130.1,153.79,131.07,154.99,131.07z"/><rect width="23.4" height="1.65" x="165.6" y="82.88" fill="#212e57"/><rect width="7.22" height="1.65" x="191.76" y="82.88" fill="#d64e12" opacity=".5"/><rect width="1.98" height="1.65" x="160.17" y="82.88" fill="#505ea3"/><rect width="9.9" height="1.65" x="221.29" y="82.88" fill="#505ea3"/><rect width="16.71" height="1.65" x="202.44" y="82.88" fill="#505ea3"/><polygon fill="#212e57" points="193.18 114.12 191.76 114.12 165.6 114.12 165.6 115.77 191.76 115.77 193.18 115.77 198.98 115.77 198.98 114.12"/><rect width="1.98" height="1.65" x="160.17" y="114.12" fill="#505ea3"/><rect width="5.46" height="1.65" x="221.29" y="114.12" fill="#505ea3"/><rect width="16.71" height="1.65" x="202.44" y="114.12" fill="#d64e12" opacity=".5"/><rect width="4.79" height="1.65" x="165.6" y="88.08" fill="#505ea3"/><rect width="26.97" height="1.65" x="172.47" y="88.08" fill="#da8621" opacity=".5"/><rect width="1.98" height="1.65" x="160.17" y="88.08" fill="#505ea3"/><rect width="40.18" height="1.65" x="202.44" y="88.08" fill="#505ea3"/><rect width="4.79" height="1.65" x="165.6" y="119.33" fill="#505ea3"/><rect width="4.79" height="1.65" x="204.35" y="119.33" fill="#505ea3"/><rect width="26.97" height="1.65" x="172.47" y="119.33" fill="#da8621" opacity=".5"/><rect width="1.98" height="1.65" x="160.17" y="119.33" fill="#505ea3"/><rect width="29.28" height="1.65" x="213.33" y="119.33" fill="#505ea3"/><g><rect width="14.56" height="1.65" x="165.6" y="93.29" fill="#505ea3"/><rect width="7.09" height="1.65" x="181.91" y="93.29" fill="#505ea3"/><rect width="1.98" height="1.65" x="160.17" y="93.29" fill="#505ea3"/><rect width="21.95" height="1.65" x="192.25" y="93.29" fill="#505ea3"/><rect width="26.04" height="1.65" x="216.58" y="93.29" fill="#d64e12" opacity=".5"/></g><g><rect width="38.58" height="1.65" x="165.6" y="98.5" fill="#505ea3"/><rect width="1.98" height="1.65" x="160.17" y="98.5" fill="#505ea3"/><rect width="28.48" height="1.65" x="206.2" y="98.5" fill="#505ea3"/></g><g><rect width="19.81" height="1.65" x="165.6" y="103.71" fill="#d64e12" opacity=".5"/><rect width="1.98" height="1.65" x="160.17" y="103.71" fill="#505ea3"/><rect width="37.76" height="1.65" x="196.93" y="103.71" fill="#212e57"/><rect width="5.09" height="1.65" x="237.53" y="103.71" fill="#505ea3"/><rect width="5.09" height="1.65" x="188.04" y="103.71" fill="#505ea3"/></g><g><rect width="9.96" height="1.65" x="165.6" y="108.91" fill="#505ea3"/><rect width="9.96" height="1.65" x="185.68" y="108.91" fill="#505ea3"/><rect width="1.98" height="1.65" x="160.17" y="108.91" fill="#505ea3"/><rect width="25.8" height="1.65" x="199.35" y="108.91" fill="#505ea3"/><rect width="14.06" height="1.65" x="228.56" y="108.91" fill="#da8621" opacity=".5"/><rect width="5.09" height="1.65" x="178.26" y="108.91" fill="#505ea3"/></g></g><g><path fill="#f2c7bd" d="M405.98,312.07l-23.86-1.97l0.62-40.94l5.61-8.64l7.66-5.18l7.06,1.65c4.01,0.94,6.74,4.66,6.43,8.76
				l-3.77,28.84L405.98,312.07z"/><path fill="#f2c7bd" d="M398.87,250.42l-0.33,8.22c0,0-1.78,0.97-5.84,0.8c-2.19-0.09-2.64-1.15-2.64-1.15l0.12-3.04L398.87,250.42
				z"/><path fill="#f2c7bd" d="M400.08,244.32c-0.03,0.3-0.05,0.57-0.08,0.84c0,0.1,0,0.19,0,0.3c0,4.89-3.34,9.98-8.08,10.5
				c0,0-0.04,0.01-0.11,0.01c-0.04,0-0.1,0.01-0.16,0c-1.01,0.08-4.67,0.23-5.95-1.29c-1.49-1.79-2.76-5.02-2.67-7.18
				c0.09-2.17,0.5-2.66,0.54-3.54c0.03-0.68-0.25-2.83-0.22-3.76c0.15-4.35,3.25-8.56,8.46-8.34
				C399.6,232.19,400.51,239.09,400.08,244.32z"/><path fill="#f2c7bd" d="M412.88,295.75c-2.72,0.55-7.39-14.97-8.89-21.71c-1.49-6.73-1.47-12.31,1.86-12.98
					c3.32-0.67,5.52,4.45,6.77,11.23C413.86,279.08,415.6,295.2,412.88,295.75z"/><path fill="#f2c7bd" d="M400.94,324.88c-2.31-0.86,3.41-18.08,5.21-22.88c1.79-4.79,4.04-9.72,6.63-8.76
						c2.59,0.97,1.05,6.16-0.75,10.96C410.24,308.99,403.25,325.74,400.94,324.88z"/><path fill="#f2c7bd" d="M414.58,284.41c0,0,0.64,6.55,0.24,9.87c-0.85,7.03-9.09,25.89-9.09,25.89l-4.32-2.45
					c0,0,5.8-23.31,5.86-24.61s-1.76-7.68-1.76-7.68L414.58,284.41z"/><path fill="#fff" d="M402.43,274.96c0.09,1.75,1.16,6.32,1.89,9.27c0.38,1.57,0.67,2.68,0.67,2.68l4.97-0.68l5.41-0.74
					c0,0-1.04-19.9-7.75-19.71C402.25,265.92,402.29,272.26,402.43,274.96z"/><path fill="#9fbff4" d="M404.32,284.23c0.38,1.57,0.67,2.68,0.67,2.68l4.97-0.68l-2.36-12.1L404.32,284.23z" opacity=".4"/><path fill="#f2c7bd" d="M402.64,317.75l-0.02-0.57l-1.2,0.53l-0.01,0.01l-2.03,1.01c-0.52,0.26-0.97,0.64-1.3,1.12l-0.94,2.4
						c0,0,0.31,0.73,1.17-0.45c0.22-0.31,0.79-0.54,1.26-0.7l-0.69,1.27l-1.47,2.9c-0.38,0.83,3.4,2.67,4.66,1.5l0.71-0.58
						c0.85-0.93,1.68-1.5,2.1-2.69l0.86-3.33L402.64,317.75z"/><path fill="#f2c7bd" d="M387.99,307.51c2.47,0.62,4.23,4.23,3.83,7.82c-0.31,2.86-1.02,6.56-2.51,10.97
				c-3.71,11-5.9,25.4-9.4,25.75c-3.5,0.36-5.66-8.16-3.54-19.83c1.91-10.55,3.19-24.23,5.68-25.2
				C383.32,306.54,385.82,306.97,387.99,307.51z"/><path fill="#f2c7bd" d="M378.58,344.34c9.43-3.29,7.15,49.96,4.26,58.29c-2.89,8.32-5.2-20.43-6.32-34.56
						C375.41,353.94,374.88,345.64,378.58,344.34z"/><path fill="#f2c7bd" d="M385.52,394.19c-0.1,0.15-0.58,13.18-0.58,13.18s-6.88,0.6-6.9,0.17c-0.02-0.43-0.39-13.61-0.39-13.61
					L385.52,394.19z"/><path fill="#f2c7bd" d="M424.46,385.78c-0.01,0.18,6.36,11.08,6.36,11.08s-5.02,4.55-5.26,4.18c-0.24-0.36-6.48-10.07-6.48-10.07
				L424.46,385.78z"/><path fill="#f2c7bd" d="M402.92,308.73c2.5,0.53,4.39,4.06,4.13,7.67c-0.2,2.87-0.77,6.59-2.08,11.06
				c-3.28,11.14-4.91,25.61-8.39,26.1c-3.48,0.49-5.97-7.94-4.31-19.68c1.5-10.61,2.25-24.34,4.7-25.4
				C398.22,307.94,400.74,308.27,402.92,308.73z"/><path fill="#f2c7bd" d="M393.14,350.01c5.96-8.01,33.13,37.93,35.4,46.44c2.27,8.51-14.96-14.57-23.8-25.64
					C395.89,359.74,390.79,353.16,393.14,350.01z"/><path fill="#9fbff4" d="M377.37,401.26c0,0,8.41,0.1,8.43,0.04c0.22-0.95,0.91-20.73-0.15-46.07c0-0.58,5.31-24.22,5.67-25.67
				l0.46,0.13c-0.22,1.37-1.97,12.84-1.94,19.74c0,1.58,0.1,2.93,0.32,3.88c1,4.23,31.25,42.66,31.25,42.66l5.39-3.16l1.4-0.82
				l0.03-0.02c0,0-12.55-22.65-15.66-27.36c-3.25-4.94-9.53-12.74-9.42-13.91c0.13-1.15,7.4-31.04,4.45-41.2
				c-4.83-16.65-27.76-1.66-27.76-1.66s-4.93,11.82-6.58,41.79C372.84,357.14,377.37,401.26,377.37,401.26z"/><path fill="#fff" d="M379.42,308.5l9.99,0.58l17.49,1.01c0.82,0.05,1.48-0.6,1.45-1.42c-0.22-5.51-0.88-24.46,0.02-28.94
				c3.2-15.88,0.84-21.13-3.57-22.55c-6.6-2.15-13.15,1.41-15.39,3.34c-3.98,3.43-9.14,3.01-9.67,8.51
				c-0.11,1.12-0.18,2.89,0.16,6.2c0.06,0.68,0.17,1.39,0.35,2.11c0,0,0,0,0,0.02c0.06,0.27,0.13,0.54,0.22,0.8
				c0.16,0.52,0.27,0.92,0.33,1.07c2.87,8.1-1.03,24.49-2.02,28.37C378.66,308.05,378.96,308.47,379.42,308.5z"/><path fill="#9fbff4" d="M379.42,308.5l9.99,0.58c-2.22-0.5-4.45-1.2-5.7-2.07c-3.09-2.16-0.5-10.49-0.66-17.91
				c-0.16-7.4,3.27-7.63,3.27-7.63c-3.07,0.03-2.9-5.72-3.92-7.94c0.06,0.68-3.41,0.58-2.16,3.82c0,0,0,0,0,0.02
				c0.06,0.27,0.13,0.54,0.22,0.8c0.16,0.52,0.27,0.92,0.33,1.07c2.87,8.1-1.03,24.49-2.02,28.37
				C378.66,308.05,378.96,308.47,379.42,308.5z" opacity=".4"/><path fill="#f2c7bd" d="M359.71,281.28c-1.41-2.37,11.59-11.82,17.4-15.43c5.81-3.6,11.04-5.4,12.76-2.51
					c1.72,2.89-2.36,6.62-8.3,10.01C375.64,276.74,361.12,283.64,359.71,281.28z"/><path fill="#f2c7bd" d="M335.26,261.18c1.44-1.97,16.37,8.07,20.47,11.06c4.1,2.99,8.21,6.45,6.6,8.66
						c-1.61,2.21-6.16-0.64-10.27-3.63S333.82,263.16,335.26,261.18z"/><path fill="#f2c7bd" d="M372.67,268.75l-11.06,6.38l-21.4-12.95l-3.19,2.86c0,0,16.97,16.12,24.01,17.05
					c5.46,0.72,16.33-5.07,16.33-5.27C377.35,276.62,372.67,268.75,372.67,268.75z"/><path fill="#fff" d="M372.43,268.53l4.77,9.37c0,0,7.78-3.8,10.13-5.11c2.35-1.31,10.04-6.59,7.31-11.2
					C391.21,255.82,372.43,268.53,372.43,268.53z"/><path fill="#f2c7bd" d="M341.26,263.56l0.57,0.01l-0.48-1.22l0-0.01l-0.93-2.07c-0.24-0.53-0.6-0.99-1.06-1.35l-2.36-1.04
						c0,0-0.74,0.28,0.4,1.19c0.3,0.24,0.51,0.81,0.65,1.29l-1.24-0.74l-2.84-1.59c-0.81-0.41-2.8,3.28-1.69,4.59l0.55,0.73
						c0.9,0.89,1.43,1.74,2.6,2.21l3.3,1L341.26,263.56z"/><path fill="#da8621" d="M388.47,262.75c-1.01,6.39-3.39,13.48,2.68,18.14c3.01,2.31,8.14,4.72,11.84,2.68
				c1.61-0.88,2.66-2.49,4.24-3.42c1.76-1.04,3.9-1.62,5.94-1.55c0.95,0.04,1.91,0.2,2.86,0.17c2.71-0.11,3.86-2.33,4.29-4.74
				c0.79-4.38-0.76-8.69-4.37-11.34c-1.35-0.99-2.93-1.87-3.69-3.44c-0.83-1.72-0.02-3.62,0.27-5.37c0.37-2.22-0.36-4.62-2.23-5.94
				c-2.34-1.64-4.71-2.17-6.06-4.95c-1.23-2.53-1.3-5.48-2.67-7.94c-1.27-2.28-3.77-4.15-6.3-4.77c-4.4-1.07-12.44,0.52-13.29,5.98
				c-0.06,0.41-0.15,1.31,0.01,1.89c0.31,1.09,0.77,1.4,1.2,2.42c1.33,3.17,1.88,6.7,2.59,10.1c0.72,3.42,2.5,6.68,2.77,10.19
				C388.61,261.51,388.57,262.14,388.47,262.75z"/><path fill="#212e57" d="M385.02,405.39c0,0-3.03,3.63-6.98,0.5c0,0-7.96,2.03-7.95,3.86c0.01,1.83,4.14,1.33,4.14,1.33l10.54-0.36
				C384.77,410.72,385.93,408.46,385.02,405.39z"/><path fill="#212e57" d="M430.09,395.38c0,0-0.34,4.72-5.39,4.47c0,0-5.29,6.29-4.21,7.77c1.08,1.48,4.14-1.33,4.14-1.33l8.36-6.43
				C432.99,399.86,432.62,397.34,430.09,395.38z"/></g><g><path fill="#f4cec9" d="M120.7,295.79c-10.58-1.92-7.54,8.89-7.44,17.83c0.65,14.16-5.26,31.1-0.23,34.15
					c13.57,7.45,20.2-44.73,16.68-47.92C128.06,298.38,124.15,296.9,120.7,295.79z"/><path fill="#f4cec9" d="M117.91,345.66c-8.72-9.3-17.96,39.41-18.06,53.6c-0.1,14.19,4.72,5.5,11.25-15.9
						C117.63,361.96,121.34,349.33,117.91,345.66z"/><polygon fill="#f4cec9" points="98.58 397.59 97.2 402.62 105.56 404.56 106.39 399.58"/><path fill="#212e57" d="M105.77,404.49c0,0,0.94,3.39,5.36,8.47c4.42,5.08,6,4.51,5.79,6.02c-0.2,1.51-23.16-4.6-23.16-4.6
						l3.37-12.06C97.14,402.33,105.83,404.17,105.77,404.49z"/><path fill="#8cb0e5" d="M131.96,295.69c0,0,2.14,9.18-3.35,34.22c-0.61,2.76-1.33,5.77-2.13,8.94
					c-6.32,24.77-17.76,59.36-18.5,61.56c-0.02,0.07-0.03,0.11-0.03,0.11l-10.92-2.94l9.59-51.3l-1.82-26.34l-0.05-0.74l-1.27-18.27
					L131.96,295.69z"/><path fill="#f4cec9" d="M107.76,303.13c-10.3,3.12-2.51,11.3,1.78,19.17c7.24,12.23,9.96,29.9,15.86,30.31
					c15.56,0.41-3.1-48.78-7.73-50C115.5,302.06,111.34,302.53,107.76,303.13z"/><path fill="#f4cec9" d="M128.15,345.22c-11.35-5.97-3.85,42.96,0.79,56.38c5.53,15.99,6.42,6.35,5.34-18.62
						C133.32,360.69,132.62,347.57,128.15,345.22z"/><polygon fill="#f4cec9" points="126.92 400.07 128.21 408.26 136.77 407.4 135.63 399.21"/><path fill="#212e57" d="M136.94,407.27c0,0,2.02,2.9,7.9,6.27c5.88,3.37,7.18,2.33,7.49,3.81c0.31,1.49-23.44,3.11-23.44,3.11
						l-0.83-12.46C128.05,408.01,136.89,406.95,136.94,407.27z"/><path fill="#9fbff4" d="M100.72,302.21c0,0-3.18,8.1,1.06,19.44c4.85,12.96,15.49,31.81,15.49,31.81l8.67,48.2l11.48-1.71
					c0,0-2.6-49.49-3.9-57.2c-1.3-7.71-8.23-40.28-8.23-40.28L100.72,302.21z"/><g><path fill="#f2c7bd" d="M129.48,251.17c6.33-0.05,19.05,31.07,14.69,31.91C138.43,287.47,119.33,253.29,129.48,251.17z"/><path fill="#fff" d="M132.16,251.92c0,0,4.2,3.23,9.62,15.64l-10.75,7.94l-7.44-8.51L132.16,251.92z"/><polygon fill="#f2c7bd" points="113.85 251.75 119.05 255.61 122.73 252.29 122.7 247.32 115.28 241.57 115.15 242.46 114.78 245.1"/><path fill="#f2c7bd" d="M115.05,243.37c2.05,4.01,6.74,5.96,7.66,6.23l-0.01-1.04l-6.92-6.07c0,0-0.27-0.03-0.63-0.03
								L115.05,243.37z" opacity=".5"/><path fill="#f2c7bd" d="M114.65,242.61c0,0,1.39,3.05,4.58,4.58c1.5,0.72,3.2,1.7,4.93,1.35c1.52-0.31,2.32-1.83,2.96-3.09
									c0.63-1.23,0.91-2.61,0.91-3.99c-0.01-1.49-0.09-2.92,0.22-4.39c0.25-1.16,0.61-2.6-0.09-3.67
									c-0.9-1.39-7.89-3.09-7.89-3.09l-4.09,2.29l-3.1,2.07L114.65,242.61z"/><path fill="#212e57" d="M126.71,239.26c0,0.43-0.23,0.78-0.51,0.77c-0.28,0-0.5-0.35-0.49-0.78c0-0.21,0.06-0.41,0.15-0.55
											c0.09-0.14,0.22-0.23,0.35-0.22C126.5,238.48,126.72,238.83,126.71,239.26z"/><path fill="#212e57" d="M121.86,239.55c0,0.43-0.25,0.78-0.56,0.77s-0.55-0.35-0.55-0.78c0-0.21,0.07-0.41,0.17-0.55
											c0.1-0.14,0.24-0.23,0.39-0.22C121.62,238.77,121.86,239.12,121.86,239.55z"/><line x1="122.45" x2="120.63" y1="237.22" y2="237.42" fill="none" stroke="#212e57" stroke-linecap="round" stroke-linejoin="round" stroke-miterlimit="10" stroke-width=".279"/><line x1="127.1" x2="125.65" y1="237.13" y2="237.15" fill="none" stroke="#212e57" stroke-linecap="round" stroke-linejoin="round" stroke-miterlimit="10" stroke-width=".279"/><path fill="none" stroke="#212e57" stroke-linecap="round" stroke-linejoin="round" stroke-miterlimit="10" stroke-width=".279" d="M123.96,239.69c0,0,0.57,1.01,0.77,1.28s0.83,1.16-0.57,1.2"/><path fill="#212e57" d="M122.21,243.64c0,0,0.15,0.15,0.4,0.33c0.37,0.27,0.97,0.61,1.67,0.63c0.5,0.02,0.98-0.48,1.23-0.77
									c0.1-0.12,0.16-0.21,0.16-0.21s-0.32,0.02-0.78,0.04c-0.5,0.02-1.15,0.04-1.73,0.03
									C122.79,243.7,122.45,243.67,122.21,243.64z"/><path fill="#fff" d="M122.21,243.64c0,0,0.15,0.15,0.4,0.33c1.44,0.28,2.57-0.03,2.9-0.14c0.1-0.12,0.16-0.21,0.16-0.21
									s-0.32,0.02-0.78,0.04c-0.5,0.02-1.15,0.04-1.73,0.03C122.79,243.7,122.45,243.67,122.21,243.64z"/><path fill="#da8621" d="M123.96,234.44c0,0-0.2,1.09-1.35,1.58c0,0,2.16,0.25,3.46-0.71c0,0-0.61,0.94-1.12,1.09
								c0,0,2.7,0.13,3.56-0.87l-0.31,1.7c0,0,1.58-1.58,1.55-3.49c-0.02-1.35-0.63-2.6-1.04-3.86c-0.27-0.83-0.67-1.76-1.48-2.2
								c-2.16-1.15-4.79-0.96-7.09-0.37c-1.83,0.47-3.71,1.11-5.18,2.33c-3.9,3.25-2.4,10.43,0.22,14.02c0,0,0.32-3.29,0.37-4.31
								c0.05-1.02,0.97-1.27,0.94-0.79c-0.03,0.48,0.05,2.86,0.56,2.83c0.51-0.03,0.71-4.18,1.93-5.05S122.97,235.25,123.96,234.44z
								"/><path fill="#fff" d="M99.63,303.25l33.6,0.44c-0.5-7.02,1.36-30.01,1.59-36.28c0-0.01,0-0.01,0-0.01
							c0.01-0.22,0.01-0.44,0.02-0.66c0.17-5.06,0.14-9.19-0.29-10.73c-0.6-2.14-1.59-3.7-3.55-4.87c-2.12-1.26-5.1-1.79-7.51-1.94
							c-0.97,5.5-8.57,0.16-8.57,0.16s-1.81,0.19-3.12,0.28c-3.06,0.21-8.33,1.23-9.36,5.78c-0.5,2.2-1.07,7.93-1.68,14.42
							c-0.34,3.66-0.69,7.57-1.04,11.22C99.52,283.25,99.84,301.36,99.63,303.25z"/><rect width="31.82" height="1.55" x="116.93" y="287.55" fill="#444a7c" transform="matrix(1 .00986 -.00986 1 2.85 -1.296)"/><polygon fill="#444a7c" points="157.06 289.34 127.45 289.05 136 268.95 165.61 269.24"/><polygon fill="#505ea3" points="157.89 289.35 128.28 289.06 136.84 268.96 166.44 269.25"/><ellipse cx="148.13" cy="279.52" fill="#e6edfc" rx="2.6" ry="1.72" transform="rotate(-67.574 148.118 279.508)"/><polyline fill="#fff" points="122.72 248.66 121.21 251.42 122.82 252.67 124.04 249.27"/><polygon fill="#fff" points="121.21 251.42 114.36 247.87 113 249.58 120.22 253.37"/><path fill="#c3d3ea" d="M108.18,262.05c0,0-4.66,13.28-5.18,14.88c-0.52,1.6-0.22,2.9,2.15,3.9c2.37,0.99-3.71,2.86-3.83,2.51
							c-0.12-0.35-8.04-7.18-7.56-7.6C94.23,275.32,108.18,262.05,108.18,262.05z"/><path fill="#f2c7bd" d="M106.02,253.33c4.24,4.7-11.04,35.42-14.57,32.72C84.36,284.68,97.69,247.17,106.02,253.33z"/><path fill="#f2c7bd" d="M92.31,269.05c0,0-5.02,12.82-2.81,15.65s23.23,4.33,23.23,4.33l0.87-5.77c0,0-14.62-3.5-14.66-3.72
							s3.52-6.55,3.52-6.55L92.31,269.05z"/><path fill="#f2c7bd" d="M89.05,283.26c0.02,1.01,0.65,1.92,1.53,2.42c6.88,3.91,37.22,4.23,36.36,2.1
									C126.97,286.16,88.91,275.65,89.05,283.26z"/><polygon fill="#f2c7bd" points="123.24 284.3 99.64 279.35 102.26 273.26 92.08 269.22 90.03 283.13 104.62 288.59 124.05 288.89 124.05 284.29"/><path fill="#f2c7bd" d="M133.47,289.25l-1.01,0.4c-1.45,0.34-2.51,0.87-3.98,0.61l-0.51-0.16l-3.93-1.22l-0.22-4.24l-0.58-0.35
								l1.24-0.93l0.01-0.01l2.22-1.52c0.57-0.38,1.22-0.63,1.9-0.7l3.02,0.41c0,0,0.57,0.74-1.14,0.95
								c-0.45,0.06-1.02,0.5-1.45,0.9l0.76,0.01l0.95,0.01l3.86,0.15C135.68,283.66,135.4,288.62,133.47,289.25z"/><path fill="#fff" d="M102.66,273.79C102.66,273.79,102.66,273.79,102.66,273.79c2.14-3.95,4.82-9.18,5.52-11.74
							c0,0,4.68-9.77,1.15-11.35c-0.47-0.21-1.47-0.55-1.95-0.43c-3.6,0.9-7.35,3.52-9.86,7.2c-1.68,2.45-3.91,6.94-5.75,11.63
							c0,0-0.01,0.01-0.01,0.01L102.66,273.79z"/><path fill="#f2c7bd" d="M146.55,289.16c0,0,2.28,2.2,4.63,2.28c2.35,0.07,3.38-2.2,3.38-2.2s-0.83-1.46-3.45-1.52
							C148.26,287.63,146.55,289.16,146.55,289.16z"/></g></g><g><rect width="54.44" height="37.57" x="20.87" y="209.92" fill="#d64e12"/><path fill="#fff" d="M36.3,229.99v-2.59c1.27-0.06,1.81-0.57,1.81-1.47c0-1.18-0.4-3.06-0.4-4.51c0-2.21,1.46-3.42,3.63-3.42
					h1.37v2.66h-0.74c-0.82,0-1.14,0.36-1.14,1.08c0,1.03,0.32,2.99,0.32,4.32c0,1.35-0.63,2.34-2.04,2.61v0.04
					c1.41,0.29,2.04,1.26,2.04,2.63c0,1.33-0.32,3.27-0.32,4.3c0,0.72,0.32,1.1,1.14,1.1h0.74v2.66h-1.37
					c-2.17,0-3.63-1.22-3.63-3.44c0-1.45,0.4-3.33,0.4-4.51C38.11,230.62,37.57,230.05,36.3,229.99z"/><path fill="#fff" d="M58.07,231.46c0,1.18,0.4,3.06,0.4,4.51c0,2.23-1.46,3.44-3.63,3.44h-1.37v-2.66h0.74
					c0.82,0,1.14-0.38,1.14-1.1c0-1.03-0.32-2.97-0.32-4.3c0-1.37,0.63-2.34,2.04-2.63v-0.04c-1.41-0.27-2.04-1.26-2.04-2.61
					c0-1.33,0.32-3.29,0.32-4.32c0-0.72-0.32-1.08-1.14-1.08h-0.74v-2.66h1.37c2.17,0,3.63,1.22,3.63,3.42c0,1.45-0.4,3.33-0.4,4.51
					c0,0.89,0.53,1.41,1.81,1.47v2.59C58.61,230.05,58.07,230.62,58.07,231.46z"/></g></svg>